<?xml version="1.0" encoding="UTF-8"?>
<!DOCTYPE svg PUBLIC "-//W3C//DTD SVG 1.1//EN" "http://www.w3.org/Graphics/SVG/1.1/DTD/svg11.dtd">
<svg xmlns="http://www.w3.org/2000/svg" version="1.1" width="512px" height="512px" style="shape-rendering:geometricPrecision; text-rendering:geometricPrecision; image-rendering:optimizeQuality; fill-rule:evenodd; clip-rule:evenodd" xmlns:xlink="http://www.w3.org/1999/xlink">
<g><path style="opacity:0.989" fill="#808284" d="M 358.5,185.5 C 339.608,191.077 320.275,194.077 300.5,194.5C 315.612,170.802 315.112,147.468 299,124.5C 296.963,122.294 294.797,120.294 292.5,118.5C 275.565,104.675 256.565,101.175 235.5,108C 216.234,116.332 204.4,130.832 200,151.5C 198.336,167.177 201.836,181.511 210.5,194.5C 190.667,194.518 171.334,191.518 152.5,185.5C 160.347,152.434 168.514,119.434 177,86.5C 184.526,74.1565 195.359,69.6565 209.5,73C 217.919,77.8762 226.586,82.2095 235.5,86C 249.911,90.4879 264.244,90.1546 278.5,85C 286.293,81.2701 293.959,77.2701 301.5,73C 318.728,69.5275 330.228,76.0275 336,92.5C 343.347,123.555 350.847,154.555 358.5,185.5 Z"/></g>
<g><path style="opacity:1" fill="#f6921a" d="M 292.5,118.5 C 305.163,141.046 304.329,163.046 290,184.5C 267.836,208.31 242.336,212.643 213.5,197.5C 212.833,196.167 211.833,195.167 210.5,194.5C 201.836,181.511 198.336,167.177 200,151.5C 204.4,130.832 216.234,116.332 235.5,108C 256.565,101.175 275.565,104.675 292.5,118.5 Z"/></g>
<g><path style="opacity:1" fill="#f1efec" d="M 251.5,120.5 C 258.617,119.14 263.451,121.807 266,128.5C 266.667,139.833 266.667,151.167 266,162.5C 262.643,169.955 257.143,172.121 249.5,169C 247.383,167.269 245.883,165.102 245,162.5C 244.333,151.167 244.333,139.833 245,128.5C 246.305,125.039 248.471,122.372 251.5,120.5 Z"/></g>
<g><path style="opacity:1" fill="#ed7817" d="M 292.5,118.5 C 294.797,120.294 296.963,122.294 299,124.5C 315.112,147.468 315.612,170.802 300.5,194.5C 282.917,214.522 261.251,220.689 235.5,213C 226.872,209.532 219.539,204.366 213.5,197.5C 242.336,212.643 267.836,208.31 290,184.5C 304.329,163.046 305.163,141.046 292.5,118.5 Z"/></g>
<g><path style="opacity:1" fill="#f1efeb" d="M 250.5,179.5 C 256.476,178.224 261.309,179.89 265,184.5C 267.762,193.306 264.595,198.64 255.5,200.5C 247.393,199.286 243.893,194.619 245,186.5C 246.666,184.004 248.5,181.671 250.5,179.5 Z"/></g>
<g><path style="opacity:1" fill="#58595b" d="M 152.5,185.5 C 171.334,191.518 190.667,194.518 210.5,194.5C 211.833,195.167 212.833,196.167 213.5,197.5C 219.539,204.366 226.872,209.532 235.5,213C 261.251,220.689 282.917,214.522 300.5,194.5C 320.275,194.077 339.608,191.077 358.5,185.5C 359.681,190.56 361.015,195.56 362.5,200.5C 363.99,207.113 364.823,213.78 365,220.5C 360.811,224.178 355.977,226.678 350.5,228C 335.706,231.521 320.706,233.854 305.5,235C 262.39,237.846 219.39,236.846 176.5,232C 169.803,230.461 163.136,228.794 156.5,227C 152.581,225.46 149.081,223.293 146,220.5C 145.333,218.167 145.333,215.833 146,213.5C 147.171,208.814 148.338,204.148 149.5,199.5C 150.185,194.761 151.185,190.095 152.5,185.5 Z"/></g>
<g><path style="opacity:0.994" fill="#7f8184" d="M 149.5,199.5 C 148.338,204.148 147.171,208.814 146,213.5C 145.333,215.833 145.333,218.167 146,220.5C 149.081,223.293 152.581,225.46 156.5,227C 163.136,228.794 169.803,230.461 176.5,232C 219.39,236.846 262.39,237.846 305.5,235C 320.706,233.854 335.706,231.521 350.5,228C 355.977,226.678 360.811,224.178 365,220.5C 364.823,213.78 363.99,207.113 362.5,200.5C 393.879,203.285 424.879,208.452 455.5,216C 460.464,217.371 465.131,219.204 469.5,221.5C 468.909,224.614 467.242,227.114 464.5,229C 448.164,237.754 430.831,243.754 412.5,247C 314.587,262.69 216.254,265.69 117.5,256C 97.38,253.788 77.38,250.788 57.5,247C 44.9634,244.193 32.6301,240.693 20.5,236.5C 21.8633,232.298 24.5299,229.131 28.5,227C 46.9316,218.19 66.2649,212.19 86.5,209C 107.64,205.767 128.64,202.6 149.5,199.5 Z"/></g>
<g><path style="opacity:1" fill="#58595b" d="M 469.5,221.5 C 474.251,222.71 478.584,224.71 482.5,227.5C 480.652,233.21 476.985,237.71 471.5,241C 457.46,247.791 442.793,252.791 427.5,256C 353.735,269.007 279.401,274.007 204.5,271C 157.081,269.758 110.081,264.758 63.5,256C 49.2673,253.192 35.6007,248.692 22.5,242.5C 21.8933,242.624 21.56,242.957 21.5,243.5C 19.6838,241.383 19.3504,239.049 20.5,236.5C 32.6301,240.693 44.9634,244.193 57.5,247C 77.38,250.788 97.38,253.788 117.5,256C 216.254,265.69 314.587,262.69 412.5,247C 430.831,243.754 448.164,237.754 464.5,229C 467.242,227.114 468.909,224.614 469.5,221.5 Z"/></g>
<g><path style="opacity:1" fill="#424143" d="M 482.5,227.5 C 494.457,235.195 494.457,243.028 482.5,251C 464.152,260.088 444.819,266.088 424.5,269C 353.248,280.084 281.581,284.084 209.5,281C 157.488,279.999 106.155,273.666 55.5,262C 46.0181,259.506 37.0181,255.84 28.5,251C 25.2608,249.264 22.9274,246.764 21.5,243.5C 21.56,242.957 21.8933,242.624 22.5,242.5C 35.6007,248.692 49.2673,253.192 63.5,256C 110.081,264.758 157.081,269.758 204.5,271C 279.401,274.007 353.735,269.007 427.5,256C 442.793,252.791 457.46,247.791 471.5,241C 476.985,237.71 480.652,233.21 482.5,227.5 Z"/></g>
<g><path style="opacity:0.985" fill="#808285" d="M 398.5,312.5 C 398.66,314.199 398.494,315.866 398,317.5C 390.108,339.85 381.441,361.85 372,383.5C 355.968,405.085 334.468,413.918 307.5,410C 301.275,408.258 295.275,405.925 289.5,403C 269.593,386.142 247.259,381.808 222.5,390C 214.001,394.748 205.668,399.748 197.5,405C 174.55,414.176 152.883,412.009 132.5,398.5C 128.407,394.209 125.24,389.209 123,383.5C 116,364.5 109,345.5 102,326.5C 100.142,320.419 101.975,315.919 107.5,313C 133.146,315.182 158.813,317.516 184.5,320C 256.101,325.027 327.435,322.527 398.5,312.5 Z M 149.5,350.5 C 166.889,350.056 184.223,350.556 201.5,352C 212.318,356.818 219.652,364.818 223.5,376C 188.014,398.672 163.348,390.172 149.5,350.5 Z M 320.5,350.5 C 336.847,350.167 353.18,350.501 369.5,351.5C 364.665,366.373 355.665,377.873 342.5,386C 325.105,390.235 309.438,386.735 295.5,375.5C 299.577,362.756 307.91,354.423 320.5,350.5 Z"/></g>
<g><path style="opacity:1" fill="#595b5d" d="M 398.5,312.5 C 407.453,312.963 410.953,317.63 409,326.5C 402,345.5 395,364.5 388,383.5C 373.124,413.022 349.291,425.189 316.5,420C 313.107,419.202 309.774,418.202 306.5,417C 297.167,411.667 287.833,406.333 278.5,401C 255.04,392.426 233.707,396.092 214.5,412C 189.85,425.432 165.85,424.432 142.5,409C 138.963,405.631 135.629,402.131 132.5,398.5C 152.883,412.009 174.55,414.176 197.5,405C 205.668,399.748 214.001,394.748 222.5,390C 247.259,381.808 269.593,386.142 289.5,403C 295.275,405.925 301.275,408.258 307.5,410C 334.468,413.918 355.968,405.085 372,383.5C 381.441,361.85 390.108,339.85 398,317.5C 398.494,315.866 398.66,314.199 398.5,312.5 Z"/></g>
<g><path style="opacity:1" fill="#929497" d="M 112.5,321.5 C 166.577,328.743 220.91,331.91 275.5,331C 279.037,332.826 279.371,335.16 276.5,338C 221.897,339.871 167.564,336.871 113.5,329C 111.285,326.758 110.952,324.258 112.5,321.5 Z"/></g>
</svg>
