<?xml version="1.0" encoding="UTF-8"?>
<!DOCTYPE svg PUBLIC "-//W3C//DTD SVG 1.1//EN" "http://www.w3.org/Graphics/SVG/1.1/DTD/svg11.dtd">
<svg xmlns="http://www.w3.org/2000/svg" version="1.1" width="512px" height="512px" style="shape-rendering:geometricPrecision; text-rendering:geometricPrecision; image-rendering:optimizeQuality; fill-rule:evenodd; clip-rule:evenodd" xmlns:xlink="http://www.w3.org/1999/xlink">
<g><path style="opacity:0.997" fill="#fee270" d="M 174.5,-0.5 C 221.167,-0.5 267.833,-0.5 314.5,-0.5C 314.5,20.5 314.5,41.5 314.5,62.5C 272.832,62.3333 231.165,62.5 189.5,63C 178.39,67.7358 175.557,75.5691 181,86.5C 182.873,88.7089 185.04,90.5422 187.5,92C 229.832,92.5 272.165,92.6667 314.5,92.5C 321.833,92.5 329.167,92.5 336.5,92.5C 329.352,93.4916 322.019,93.825 314.5,93.5C 314.5,108.5 314.5,123.5 314.5,138.5C 319.363,138.181 324.03,138.514 328.5,139.5C 284.5,139.5 240.5,139.5 196.5,139.5C 169.995,139.831 143.661,139.498 117.5,138.5C 117.333,112.831 117.5,87.1645 118,61.5C 122.887,28.0221 141.72,7.35539 174.5,-0.5 Z"/></g>
<g><path style="opacity:0.998" fill="#feb44c" d="M 314.5,-0.5 C 361.5,-0.5 408.5,-0.5 455.5,-0.5C 485.167,7.16667 503.833,25.8333 511.5,55.5C 511.5,122.167 511.5,188.833 511.5,255.5C 502.903,288.589 481.57,307.422 447.5,312C 429.503,312.5 411.503,312.667 393.5,312.5C 392.673,273.571 392.173,234.571 392,195.5C 383.766,162.096 362.6,143.43 328.5,139.5C 324.03,138.514 319.363,138.181 314.5,138.5C 314.5,123.5 314.5,108.5 314.5,93.5C 322.019,93.825 329.352,93.4916 336.5,92.5C 349.716,88.0599 352.882,79.7265 346,67.5C 343.603,65.2177 340.769,63.8844 337.5,63.5C 330.018,62.508 322.352,62.1746 314.5,62.5C 314.5,41.5 314.5,20.5 314.5,-0.5 Z"/></g>
<g><path style="opacity:1" fill="#8295fd" d="M 314.5,62.5 C 322.352,62.1746 330.018,62.508 337.5,63.5C 329.833,63.5 322.167,63.5 314.5,63.5C 314.5,73.1667 314.5,82.8333 314.5,92.5C 272.165,92.6667 229.832,92.5 187.5,92C 185.04,90.5422 182.873,88.7089 181,86.5C 175.557,75.5691 178.39,67.7358 189.5,63C 231.165,62.5 272.832,62.3333 314.5,62.5 Z"/></g>
<g><path style="opacity:1" fill="#6766fe" d="M 337.5,63.5 C 340.769,63.8844 343.603,65.2177 346,67.5C 352.882,79.7265 349.716,88.0599 336.5,92.5C 329.167,92.5 321.833,92.5 314.5,92.5C 314.5,82.8333 314.5,73.1667 314.5,63.5C 322.167,63.5 329.833,63.5 337.5,63.5 Z"/></g>
<g><path style="opacity:1" fill="#6967fc" d="M 391.5,62.5 C 408.57,62.0428 425.57,62.5428 442.5,64C 453.335,71.5138 454.335,80.1805 445.5,90C 443.913,90.8624 442.246,91.5291 440.5,92C 423.5,92.6667 406.5,92.6667 389.5,92C 379.571,86.222 377.404,78.3886 383,68.5C 385.671,66.0976 388.505,64.0976 391.5,62.5 Z"/></g>
<g><path style="opacity:0.998" fill="#7f94fe" d="M 117.5,138.5 C 143.661,139.498 169.995,139.831 196.5,139.5C 196.5,155.5 196.5,171.5 196.5,187.5C 189.869,187.567 185.036,190.567 182,196.5C 181.5,204.159 181.334,211.826 181.5,219.5C 165.83,219.333 150.163,219.5 134.5,220C 110.254,225.246 95.7544,240.08 91,264.5C 90.5007,269.489 90.3341,274.489 90.5,279.5C 84.4067,279.139 78.4067,279.639 72.5,281C 62.2135,289.322 61.8802,297.988 71.5,307C 72.8333,307.667 74.1667,308.333 75.5,309C 80.4889,309.499 85.4889,309.666 90.5,309.5C 90.3334,328.836 90.5,348.17 91,367.5C 92.7694,372.935 96.2694,376.768 101.5,379C 133.165,379.5 164.832,379.667 196.5,379.5C 196.5,403.833 196.5,428.167 196.5,452.5C 179.835,468.999 163.668,485.999 148,503.5C 145.225,506.78 142.058,509.446 138.5,511.5C 134.5,511.5 130.5,511.5 126.5,511.5C 106.421,492.254 86.7546,472.421 67.5,452C 31.3152,449.307 8.64856,430.473 -0.5,395.5C -0.5,328.833 -0.5,262.167 -0.5,195.5C 8.12254,162.383 29.4559,143.55 63.5,139C 81.4969,138.5 99.4969,138.333 117.5,138.5 Z"/></g>
<g><path style="opacity:1" fill="#6666fe" d="M 196.5,139.5 C 240.5,139.5 284.5,139.5 328.5,139.5C 362.6,143.43 383.766,162.096 392,195.5C 392.173,234.571 392.673,273.571 393.5,312.5C 393.667,338.169 393.5,363.835 393,389.5C 388.216,422.897 369.383,443.397 336.5,451C 289.841,452.214 243.175,452.714 196.5,452.5C 196.5,428.167 196.5,403.833 196.5,379.5C 228.896,379.978 261.229,379.478 293.5,378C 297.313,375.876 299.813,372.709 301,368.5C 301.5,348.836 301.667,329.169 301.5,309.5C 307.593,309.861 313.593,309.361 319.5,308C 327.75,302.151 329.583,294.651 325,285.5C 323.442,283.641 321.609,282.141 319.5,281C 313.593,279.639 307.593,279.139 301.5,279.5C 303.341,248.313 289.341,228.48 259.5,220C 243.503,219.5 227.503,219.333 211.5,219.5C 211.666,212.492 211.5,205.492 211,198.5C 208.625,191.565 203.792,187.899 196.5,187.5C 196.5,171.5 196.5,155.5 196.5,139.5 Z"/></g>
<g><path style="opacity:1" fill="#3f4980" d="M 196.5,187.5 C 196.5,198.167 196.5,208.833 196.5,219.5C 191.5,219.5 186.5,219.5 181.5,219.5C 181.334,211.826 181.5,204.159 182,196.5C 185.036,190.567 189.869,187.567 196.5,187.5 Z"/></g>
<g><path style="opacity:1" fill="#293367" d="M 196.5,187.5 C 203.792,187.899 208.625,191.565 211,198.5C 211.5,205.492 211.666,212.492 211.5,219.5C 206.5,219.5 201.5,219.5 196.5,219.5C 196.5,208.833 196.5,198.167 196.5,187.5 Z"/></g>
<g><path style="opacity:1" fill="#e6effc" d="M 181.5,219.5 C 186.5,219.5 191.5,219.5 196.5,219.5C 196.5,229.5 196.5,239.5 196.5,249.5C 176.497,249.333 156.497,249.5 136.5,250C 129.427,252.072 124.594,256.572 122,263.5C 121.5,292.165 121.333,320.831 121.5,349.5C 146.5,349.5 171.5,349.5 196.5,349.5C 196.5,359.5 196.5,369.5 196.5,379.5C 164.832,379.667 133.165,379.5 101.5,379C 96.2694,376.768 92.7694,372.935 91,367.5C 90.5,348.17 90.3334,328.836 90.5,309.5C 90.5,299.5 90.5,289.5 90.5,279.5C 90.3341,274.489 90.5007,269.489 91,264.5C 95.7544,240.08 110.254,225.246 134.5,220C 150.163,219.5 165.83,219.333 181.5,219.5 Z"/></g>
<g><path style="opacity:1" fill="#cedafc" d="M 196.5,219.5 C 201.5,219.5 206.5,219.5 211.5,219.5C 227.503,219.333 243.503,219.5 259.5,220C 289.341,228.48 303.341,248.313 301.5,279.5C 301.5,289.5 301.5,299.5 301.5,309.5C 301.667,329.169 301.5,348.836 301,368.5C 299.813,372.709 297.313,375.876 293.5,378C 261.229,379.478 228.896,379.978 196.5,379.5C 196.5,369.5 196.5,359.5 196.5,349.5C 221.5,349.5 246.5,349.5 271.5,349.5C 271.667,321.831 271.5,294.165 271,266.5C 268.595,256.761 262.429,251.261 252.5,250C 233.836,249.5 215.17,249.333 196.5,249.5C 196.5,239.5 196.5,229.5 196.5,219.5 Z"/></g>
<g><path style="opacity:1" fill="#404a7f" d="M 196.5,249.5 C 196.5,282.833 196.5,316.167 196.5,349.5C 171.5,349.5 146.5,349.5 121.5,349.5C 121.333,320.831 121.5,292.165 122,263.5C 124.594,256.572 129.427,252.072 136.5,250C 156.497,249.5 176.497,249.333 196.5,249.5 Z"/></g>
<g><path style="opacity:1" fill="#283366" d="M 196.5,249.5 C 215.17,249.333 233.836,249.5 252.5,250C 262.429,251.261 268.595,256.761 271,266.5C 271.5,294.165 271.667,321.831 271.5,349.5C 246.5,349.5 221.5,349.5 196.5,349.5C 196.5,316.167 196.5,282.833 196.5,249.5 Z"/></g>
<g><path style="opacity:1" fill="#404a80" d="M 90.5,279.5 C 90.5,289.5 90.5,299.5 90.5,309.5C 85.4889,309.666 80.4889,309.499 75.5,309C 74.1667,308.333 72.8333,307.667 71.5,307C 61.8802,297.988 62.2135,289.322 72.5,281C 78.4067,279.639 84.4067,279.139 90.5,279.5 Z"/></g>
<g><path style="opacity:1" fill="#283367" d="M 301.5,279.5 C 307.593,279.139 313.593,279.639 319.5,281C 321.609,282.141 323.442,283.641 325,285.5C 329.583,294.651 327.75,302.151 319.5,308C 313.593,309.361 307.593,309.861 301.5,309.5C 301.5,299.5 301.5,289.5 301.5,279.5 Z"/></g>
<g><path style="opacity:1" fill="#92e371" d="M 151.5,281.5 C 164.344,280.849 170.844,286.849 171,299.5C 166.421,310.693 158.587,313.86 147.5,309C 141.096,302.709 139.93,295.542 144,287.5C 146.114,284.879 148.614,282.879 151.5,281.5 Z"/></g>
<g><path style="opacity:1" fill="#51c97a" d="M 231.5,281.5 C 244.344,280.849 250.844,286.849 251,299.5C 246.421,310.693 238.587,313.86 227.5,309C 222.048,303.972 220.215,297.806 222,290.5C 224.406,286.592 227.572,283.592 231.5,281.5 Z"/></g>
</svg>
