<?xml version="1.0" encoding="UTF-8"?>
<!DOCTYPE svg PUBLIC "-//W3C//DTD SVG 1.1//EN" "http://www.w3.org/Graphics/SVG/1.1/DTD/svg11.dtd">
<svg xmlns="http://www.w3.org/2000/svg" version="1.1" width="512px" height="512px" style="shape-rendering:geometricPrecision; text-rendering:geometricPrecision; image-rendering:optimizeQuality; fill-rule:evenodd; clip-rule:evenodd" xmlns:xlink="http://www.w3.org/1999/xlink">
<g><path style="opacity:1" fill="#2c4d66" d="M 247.5,-0.5 C 256.167,-0.5 264.833,-0.5 273.5,-0.5C 296.251,3.62645 315.751,13.9598 332,30.5C 343.311,43.7292 348.144,59.0625 346.5,76.5C 346.5,84.5 346.5,92.5 346.5,100.5C 337.5,100.5 328.5,100.5 319.5,100.5C 319.5,100.167 319.5,99.8333 319.5,99.5C 327.223,54.0932 309.89,22.9265 267.5,6C 260.87,3.58252 254.203,1.74919 247.5,0.5C 247.5,0.166667 247.5,-0.166667 247.5,-0.5 Z"/></g>
<g><path style="opacity:0.998" fill="#375e7c" d="M 247.5,0.5 C 254.203,1.74919 260.87,3.58252 267.5,6C 309.89,22.9265 327.223,54.0932 319.5,99.5C 307.279,99.0283 295.613,96.195 284.5,91C 274.5,86.3333 264.5,81.6667 254.5,77C 242.421,71.2097 230.421,71.2097 218.5,77C 204.962,86.264 191.628,95.764 178.5,105.5C 178.827,95.6522 178.494,85.9856 177.5,76.5C 177.004,59.8122 181.17,44.4788 190,30.5C 196.587,22.4559 205.087,17.9559 215.5,17C 223.83,7.00138 234.497,1.50138 247.5,0.5 Z"/></g>
<g><path style="opacity:0.998" fill="#febb84" d="M 319.5,99.5 C 319.5,99.8333 319.5,100.167 319.5,100.5C 323.022,128.602 315.355,153.102 296.5,174C 305.16,174.5 313.827,174.666 322.5,174.5C 303.338,175.332 284.004,175.832 264.5,176C 259.188,180.572 259.188,185.239 264.5,190C 268.821,190.499 273.154,190.666 277.5,190.5C 269.084,197.54 259.418,202.206 248.5,204.5C 238.391,201.778 229.058,197.445 220.5,191.5C 199.468,177.458 185.801,158.124 179.5,133.5C 179.492,130.455 179.159,127.455 178.5,124.5C 178.5,118.167 178.5,111.833 178.5,105.5C 191.628,95.764 204.962,86.264 218.5,77C 230.421,71.2097 242.421,71.2097 254.5,77C 264.5,81.6667 274.5,86.3333 284.5,91C 295.613,96.195 307.279,99.0283 319.5,99.5 Z"/></g>
<g><path style="opacity:0.989" fill="#9ed3fd" d="M 177.5,76.5 C 178.494,85.9856 178.827,95.6522 178.5,105.5C 178.5,111.833 178.5,118.167 178.5,124.5C 177.549,123.081 177.216,121.415 177.5,119.5C 169.826,119.666 162.159,119.5 154.5,119C 147.114,116.123 142.448,110.956 140.5,103.5C 137.976,90.7084 142.643,81.875 154.5,77C 162.159,76.5003 169.826,76.3336 177.5,76.5 Z"/></g>
<g><path style="opacity:0.989" fill="#9fd4fd" d="M 346.5,76.5 C 354.84,76.3336 363.173,76.5003 371.5,77C 383.624,82.1277 388.291,91.2944 385.5,104.5C 383.11,111.393 378.443,116.226 371.5,119C 363.173,119.5 354.84,119.666 346.5,119.5C 346.5,113.167 346.5,106.833 346.5,100.5C 346.5,92.5 346.5,84.5 346.5,76.5 Z"/></g>
<g><path style="opacity:1" fill="#f5a96c" d="M 319.5,100.5 C 328.5,100.5 337.5,100.5 346.5,100.5C 346.5,106.833 346.5,113.167 346.5,119.5C 346.46,124.193 346.127,128.859 345.5,133.5C 341.404,148.693 334.404,162.36 324.5,174.5C 323.833,174.5 323.167,174.5 322.5,174.5C 313.827,174.666 305.16,174.5 296.5,174C 315.355,153.102 323.022,128.602 319.5,100.5 Z"/></g>
<g><path style="opacity:1" fill="#86beef" d="M 140.5,103.5 C 142.448,110.956 147.114,116.123 154.5,119C 162.159,119.5 169.826,119.666 177.5,119.5C 177.216,121.415 177.549,123.081 178.5,124.5C 179.159,127.455 179.492,130.455 179.5,133.5C 170.827,133.666 162.16,133.5 153.5,133C 147.333,130.833 143.167,126.667 141,120.5C 140.501,114.843 140.334,109.176 140.5,103.5 Z"/></g>
<g><path style="opacity:1" fill="#85beef" d="M 385.5,104.5 C 385.666,109.844 385.499,115.177 385,120.5C 383.01,126.322 379.177,130.322 373.5,132.5C 367.879,133.354 362.212,133.687 356.5,133.5C 352.833,133.5 349.167,133.5 345.5,133.5C 346.127,128.859 346.46,124.193 346.5,119.5C 354.84,119.666 363.173,119.5 371.5,119C 378.443,116.226 383.11,111.393 385.5,104.5 Z"/></g>
<g><path style="opacity:0.988" fill="#375e7d" d="M 373.5,132.5 C 373.785,143.54 373.285,154.54 372,165.5C 368.5,178.333 360.333,186.5 347.5,190C 333.504,190.5 319.504,190.667 305.5,190.5C 296.167,190.5 286.833,190.5 277.5,190.5C 273.154,190.666 268.821,190.499 264.5,190C 259.188,185.239 259.188,180.572 264.5,176C 284.004,175.832 303.338,175.332 322.5,174.5C 323.167,174.5 323.833,174.5 324.5,174.5C 330.842,174.666 337.175,174.5 343.5,174C 349.667,171.833 353.833,167.667 356,161.5C 356.5,152.173 356.666,142.839 356.5,133.5C 362.212,133.687 367.879,133.354 373.5,132.5 Z"/></g>
<g><path style="opacity:1" fill="#f5a96c" d="M 277.5,190.5 C 286.833,190.5 296.167,190.5 305.5,190.5C 305.5,191.167 305.167,191.5 304.5,191.5C 289.114,203.126 271.78,207.96 252.5,206C 250.942,205.79 249.609,205.29 248.5,204.5C 259.418,202.206 269.084,197.54 277.5,190.5 Z"/></g>
<g><path style="opacity:1" fill="#ea9a58" d="M 220.5,191.5 C 229.058,197.445 238.391,201.778 248.5,204.5C 249.609,205.29 250.942,205.79 252.5,206C 271.78,207.96 289.114,203.126 304.5,191.5C 304.5,201.5 304.5,211.5 304.5,221.5C 298.454,226.881 292.121,231.881 285.5,236.5C 284.833,230.986 284.167,225.319 283.5,219.5C 260.574,226.781 239.574,223.115 220.5,208.5C 220.5,202.833 220.5,197.167 220.5,191.5 Z"/></g>
<g><path style="opacity:0.999" fill="#f4a96c" d="M 220.5,208.5 C 239.574,223.115 260.574,226.781 283.5,219.5C 284.167,225.319 284.833,230.986 285.5,236.5C 285.167,237.167 284.833,237.833 284.5,238.5C 277.416,243.41 270.749,248.91 264.5,255C 263.167,255.667 261.833,255.667 260.5,255C 247.269,243.593 233.935,232.426 220.5,221.5C 220.5,217.167 220.5,212.833 220.5,208.5 Z"/></g>
<g><path style="opacity:0.995" fill="#eef4fd" d="M 220.5,221.5 C 233.935,232.426 247.269,243.593 260.5,255C 261.833,255.667 263.167,255.667 264.5,255C 270.749,248.91 277.416,243.41 284.5,238.5C 296.358,242.102 307.691,246.769 318.5,252.5C 314.832,261.337 310.498,269.837 305.5,278C 304.167,278.667 302.833,278.667 301.5,278C 298.929,276.546 296.262,275.38 293.5,274.5C 283.393,268.274 273.06,262.274 262.5,256.5C 251.979,261.925 241.646,267.592 231.5,273.5C 228.978,275.172 226.312,276.672 223.5,278C 221.741,278.798 220.074,278.631 218.5,277.5C 210.392,261.613 202.059,245.947 193.5,230.5C 202.215,226.928 211.215,223.928 220.5,221.5 Z"/></g>
<g><path style="opacity:1" fill="#d9edfd" d="M 304.5,221.5 C 313.53,223.731 322.197,226.731 330.5,230.5C 326.733,236.938 323.399,243.605 320.5,250.5C 319.833,251.167 319.167,251.833 318.5,252.5C 307.691,246.769 296.358,242.102 284.5,238.5C 284.833,237.833 285.167,237.167 285.5,236.5C 292.121,231.881 298.454,226.881 304.5,221.5 Z"/></g>
<g><path style="opacity:0.996" fill="#375e7d" d="M 193.5,230.5 C 202.059,245.947 210.392,261.613 218.5,277.5C 220.074,278.631 221.741,278.798 223.5,278C 226.312,276.672 228.978,275.172 231.5,273.5C 233.061,278.95 235.394,283.95 238.5,288.5C 239.84,293.013 241.673,297.347 244,301.5C 244.495,303.473 244.662,305.473 244.5,307.5C 243.781,309.764 243.448,312.097 243.5,314.5C 240.602,329.334 237.936,344.334 235.5,359.5C 192.663,359.832 149.997,359.499 107.5,358.5C 107.084,340.458 107.584,322.458 109,304.5C 112.855,288.956 120.688,275.789 132.5,265C 150.713,249.89 171.046,238.39 193.5,230.5 Z"/></g>
<g><path style="opacity:1" fill="#2b4d66" d="M 330.5,230.5 C 359.668,239.529 384.168,255.529 404,278.5C 409.899,286.634 413.899,295.634 416,305.5C 417.363,323.135 417.863,340.802 417.5,358.5C 417.167,358.5 416.833,358.5 416.5,358.5C 405.833,358.5 395.167,358.5 384.5,358.5C 390.231,307.122 369.231,271.955 321.5,253C 320.748,252.329 320.414,251.496 320.5,250.5C 323.399,243.605 326.733,236.938 330.5,230.5 Z"/></g>
<g><path style="opacity:1" fill="#375e7d" d="M 320.5,250.5 C 320.414,251.496 320.748,252.329 321.5,253C 369.231,271.955 390.231,307.122 384.5,358.5C 395.167,358.5 405.833,358.5 416.5,358.5C 374.337,359.499 332.003,359.832 289.5,359.5C 289.5,359.167 289.5,358.833 289.5,358.5C 286.381,340.453 283.048,322.453 279.5,304.5C 281.833,299.167 284.167,293.833 286.5,288.5C 289.343,284.147 291.677,279.48 293.5,274.5C 296.262,275.38 298.929,276.546 301.5,278C 302.833,278.667 304.167,278.667 305.5,278C 310.498,269.837 314.832,261.337 318.5,252.5C 319.167,251.833 319.833,251.167 320.5,250.5 Z"/></g>
<g><path style="opacity:1" fill="#e43a50" d="M 293.5,274.5 C 291.677,279.48 289.343,284.147 286.5,288.5C 278.494,284.156 270.494,279.823 262.5,275.5C 254.191,279.32 246.191,283.654 238.5,288.5C 235.394,283.95 233.061,278.95 231.5,273.5C 241.646,267.592 251.979,261.925 262.5,256.5C 273.06,262.274 283.393,268.274 293.5,274.5 Z"/></g>
<g><path style="opacity:1" fill="#ea5367" d="M 286.5,288.5 C 284.167,293.833 281.833,299.167 279.5,304.5C 268.167,304.5 256.833,304.5 245.5,304.5C 245.737,305.791 245.404,306.791 244.5,307.5C 244.662,305.473 244.495,303.473 244,301.5C 241.673,297.347 239.84,293.013 238.5,288.5C 246.191,283.654 254.191,279.32 262.5,275.5C 270.494,279.823 278.494,284.156 286.5,288.5 Z"/></g>
<g><path style="opacity:1" fill="#e4384f" d="M 279.5,304.5 C 283.048,322.453 286.381,340.453 289.5,358.5C 284.167,358.5 278.833,358.5 273.5,358.5C 271.814,345.051 269.481,331.718 266.5,318.5C 265.975,317.808 265.308,317.308 264.5,317C 257.095,317.135 250.095,316.302 243.5,314.5C 243.448,312.097 243.781,309.764 244.5,307.5C 245.404,306.791 245.737,305.791 245.5,304.5C 256.833,304.5 268.167,304.5 279.5,304.5 Z"/></g>
<g><path style="opacity:1" fill="#e95669" d="M 243.5,314.5 C 250.095,316.302 257.095,317.135 264.5,317C 265.308,317.308 265.975,317.808 266.5,318.5C 269.481,331.718 271.814,345.051 273.5,358.5C 278.833,358.5 284.167,358.5 289.5,358.5C 289.5,358.833 289.5,359.167 289.5,359.5C 271.5,359.5 253.5,359.5 235.5,359.5C 237.936,344.334 240.602,329.334 243.5,314.5 Z"/></g>
<g><path style="opacity:1" fill="#9ed3fd" d="M 107.5,358.5 C 149.997,359.499 192.663,359.832 235.5,359.5C 253.5,359.5 271.5,359.5 289.5,359.5C 332.003,359.832 374.337,359.499 416.5,358.5C 416.833,358.5 417.167,358.5 417.5,358.5C 428.5,358.5 439.5,358.5 450.5,358.5C 470.007,365.159 477.34,378.826 472.5,399.5C 463.318,399.173 454.318,399.507 445.5,400.5C 443.321,400.84 441.488,401.84 440,403.5C 438.353,413.969 442.853,417.969 453.5,415.5C 453.333,431.837 453.5,448.17 454,464.5C 456.573,470.455 460.739,471.955 466.5,469C 467.893,467.829 468.727,466.329 469,464.5C 469.5,448.503 469.667,432.503 469.5,416.5C 470.5,416.5 471.5,416.5 472.5,416.5C 472.667,441.502 472.5,466.502 472,491.5C 469.217,502.451 462.384,509.118 451.5,511.5C 306.833,511.5 162.167,511.5 17.5,511.5C 9.16667,507.833 3.16667,501.833 -0.5,493.5C -0.5,454.833 -0.5,416.167 -0.5,377.5C 2.83861,367.336 9.83861,361.169 20.5,359C 49.4981,358.5 78.4981,358.333 107.5,358.5 Z"/></g>
<g><path style="opacity:1" fill="#85beef" d="M 450.5,358.5 C 465.225,358.068 479.892,358.568 494.5,360C 503.111,363.109 508.778,368.943 511.5,377.5C 511.5,416.167 511.5,454.833 511.5,493.5C 507.833,501.833 501.833,507.833 493.5,511.5C 479.5,511.5 465.5,511.5 451.5,511.5C 462.384,509.118 469.217,502.451 472,491.5C 472.5,466.502 472.667,441.502 472.5,416.5C 471.5,416.5 470.5,416.5 469.5,416.5C 472.641,415.679 475.975,415.179 479.5,415C 485.653,410.748 485.986,406.081 480.5,401C 468.838,400.5 457.171,400.333 445.5,400.5C 454.318,399.507 463.318,399.173 472.5,399.5C 477.34,378.826 470.007,365.159 450.5,358.5 Z"/></g>
<g><path style="opacity:1" fill="#2d4f68" d="M 44.5,400.5 C 53.3583,399.402 61.6917,400.902 69.5,405C 74.4264,407.353 76.2598,411.186 75,416.5C 74.5,418.333 73.3333,419.5 71.5,420C 68.8333,420.667 66.1667,420.667 63.5,420C 58.1509,415.27 52.3176,414.436 46,417.5C 45.2025,419.259 45.3691,420.926 46.5,422.5C 54.3277,425.717 61.9943,429.217 69.5,433C 78.7749,441.471 79.9416,450.971 73,461.5C 59.1079,473.283 44.9412,473.45 30.5,462C 26.3873,458.491 25.554,454.324 28,449.5C 31.1123,446.277 34.6123,445.777 38.5,448C 45.1263,455.145 52.6263,456.312 61,451.5C 61.8959,448.975 61.3959,446.808 59.5,445C 52.5,442 45.5,439 38.5,436C 31.0554,430.769 28.2221,423.603 30,414.5C 32.774,407.557 37.6073,402.89 44.5,400.5 Z"/></g>
<g><path style="opacity:1" fill="#2b4d67" d="M 96.5,400.5 C 100.954,399.617 104.454,400.95 107,404.5C 107.333,419.167 107.667,433.833 108,448.5C 115.333,456.5 122.667,456.5 130,448.5C 130.333,433.833 130.667,419.167 131,404.5C 134.661,400.024 138.994,399.357 144,402.5C 145.636,418.408 145.969,434.408 145,450.5C 141.574,461.586 134.074,468.086 122.5,470C 108.304,470.817 98.4707,464.651 93,451.5C 92.3333,435.833 92.3333,420.167 93,404.5C 93.6897,402.65 94.8564,401.316 96.5,400.5 Z"/></g>
<g><path style="opacity:1" fill="#2d5069" d="M 170.5,400.5 C 179.9,400.114 189.234,400.614 198.5,402C 209.501,407.502 214.001,416.336 212,428.5C 206.801,442.528 196.635,448.528 181.5,446.5C 181.666,452.509 181.499,458.509 181,464.5C 176.142,472.408 171.142,472.408 166,464.5C 165.333,444.833 165.333,425.167 166,405.5C 167.025,403.313 168.525,401.646 170.5,400.5 Z"/></g>
<g><path style="opacity:1" fill="#2b4d66" d="M 232.5,400.5 C 241.915,400.083 251.248,400.583 260.5,402C 273.044,408.603 277.211,418.77 273,432.5C 266.338,443.567 256.505,448.234 243.5,446.5C 243.925,453.615 243.425,460.615 242,467.5C 236.879,471.875 232.545,471.209 229,465.5C 228.333,445.167 228.333,424.833 229,404.5C 230.376,403.295 231.542,401.962 232.5,400.5 Z"/></g>
<g><path style="opacity:1" fill="#2c4e68" d="M 314.5,400.5 C 345.153,398.654 359.653,412.987 358,443.5C 351.406,462.743 337.906,471.576 317.5,470C 296.724,463.957 287.224,450.124 289,428.5C 292.848,414.823 301.348,405.49 314.5,400.5 Z"/></g>
<g><path style="opacity:1" fill="#2d4f68" d="M 382.5,400.5 C 390.84,400.334 399.173,400.5 407.5,401C 423.03,408.076 426.864,419.243 419,434.5C 416.079,438.092 412.579,440.925 408.5,443C 413,448.167 417.5,453.333 422,458.5C 423.18,469.001 419.013,472.168 409.5,468C 404.451,462.073 399.284,456.239 394,450.5C 393.667,455.167 393.333,459.833 393,464.5C 389.308,471.637 384.641,472.304 379,466.5C 377.357,446.256 377.024,425.923 378,405.5C 379.025,403.313 380.525,401.646 382.5,400.5 Z"/></g>
<g><path style="opacity:1" fill="#2d4f69" d="M 445.5,400.5 C 457.171,400.333 468.838,400.5 480.5,401C 485.986,406.081 485.653,410.748 479.5,415C 475.975,415.179 472.641,415.679 469.5,416.5C 469.667,432.503 469.5,448.503 469,464.5C 468.727,466.329 467.893,467.829 466.5,469C 460.739,471.955 456.573,470.455 454,464.5C 453.5,448.17 453.333,431.837 453.5,415.5C 442.853,417.969 438.353,413.969 440,403.5C 441.488,401.84 443.321,400.84 445.5,400.5 Z"/></g>
<g><path style="opacity:1" fill="#9ed2fc" d="M 181.5,415.5 C 184.85,415.335 188.183,415.502 191.5,416C 196.916,419.203 197.916,423.536 194.5,429C 190.3,430.367 185.967,430.867 181.5,430.5C 181.5,425.5 181.5,420.5 181.5,415.5 Z"/></g>
<g><path style="opacity:1" fill="#9dd1fb" d="M 244.5,415.5 C 247.518,415.335 250.518,415.502 253.5,416C 258.291,417.412 260.124,420.579 259,425.5C 257.924,428.079 256.091,429.746 253.5,430.5C 250.5,430.5 247.5,430.5 244.5,430.5C 244.5,425.5 244.5,420.5 244.5,415.5 Z"/></g>
<g><path style="opacity:1" fill="#9dd2fc" d="M 318.5,415.5 C 337.312,415.137 345.145,424.137 342,442.5C 336.988,452.81 328.821,456.644 317.5,454C 306.566,448.963 302.399,440.463 305,428.5C 308.101,422.563 312.601,418.23 318.5,415.5 Z"/></g>
<g><path style="opacity:1" fill="#9ed3fc" d="M 393.5,415.5 C 398.765,414.571 403.265,415.904 407,419.5C 408.165,423.684 406.665,426.517 402.5,428C 399.518,428.498 396.518,428.665 393.5,428.5C 393.5,424.167 393.5,419.833 393.5,415.5 Z"/></g>
<g><path style="opacity:1" fill="#6691b3" d="M 244.5,415.5 C 244.5,420.5 244.5,425.5 244.5,430.5C 247.5,430.5 250.5,430.5 253.5,430.5C 250.375,431.479 247.042,431.813 243.5,431.5C 243.179,425.974 243.512,420.64 244.5,415.5 Z"/></g>
</svg>
