<svg width="216" height="216" viewBox="0 0 216 216" fill="none" xmlns="http://www.w3.org/2000/svg">
<rect x="4" y="4" width="208" height="208" rx="29" fill="url(#paint0_linear_10_74)" stroke="url(#paint1_radial_10_74)" stroke-width="8"/>
<rect x="133.024" y="61" width="25.1153" height="97.1565" fill="white"/>
<rect x="59" y="109.248" width="25.1153" height="48.9087" fill="white"/>
<rect x="108.57" y="109.909" width="24.4544" height="24.4544" fill="white"/>
<rect x="84.1153" y="85.4543" width="24.4544" height="24.4544" fill="white"/>
<rect x="59.6609" y="61" width="24.4544" height="24.4544" fill="white"/>
<line x1="40.5" x2="40.5" y2="216" stroke="url(#paint2_radial_10_74)" stroke-opacity="0.32"/>
<line x1="216" y1="32.5" y2="32.5" stroke="url(#paint3_radial_10_74)" stroke-opacity="0.32"/>
<line x1="216" y1="188.5" y2="188.5" stroke="url(#paint4_radial_10_74)" stroke-opacity="0.32"/>
<line x1="177.5" x2="177.5" y2="216" stroke="url(#paint5_radial_10_74)" stroke-opacity="0.32"/>
<rect x="183" y="41" width="6" height="6" rx="3" fill="#999999" fill-opacity="0.59"/>
<rect x="177" y="197" width="6" height="6" rx="3" fill="#999999" fill-opacity="0.59"/>
<rect x="32" y="14" width="5" height="5" rx="2.5" fill="#999999" fill-opacity="0.59"/>
<rect x="28" y="176" width="5" height="5" rx="2.5" fill="#999999" fill-opacity="0.59"/>
<rect x="60" y="195" width="5" height="5" rx="2.5" fill="#999999" fill-opacity="0.59"/>
<defs>
<linearGradient id="paint0_linear_10_74" x1="108" y1="8" x2="108" y2="208" gradientUnits="userSpaceOnUse">
<stop stop-color="#303030" stop-opacity="0.12"/>
<stop offset="1" stop-color="#969696" stop-opacity="0.17"/>
</linearGradient>
<radialGradient id="paint1_radial_10_74" cx="0" cy="0" r="1" gradientUnits="userSpaceOnUse" gradientTransform="translate(108 108) rotate(90) scale(100)">
<stop stop-color="white"/>
<stop offset="0.9999" stop-color="#777777" stop-opacity="0.71965"/>
<stop offset="1" stop-color="white" stop-opacity="0.12"/>
</radialGradient>
<radialGradient id="paint2_radial_10_74" cx="0" cy="0" r="1" gradientUnits="userSpaceOnUse" gradientTransform="translate(39.5 108) rotate(90) scale(108 0.5)">
<stop stop-color="white"/>
<stop offset="1" stop-color="#999999" stop-opacity="0.23"/>
</radialGradient>
<radialGradient id="paint3_radial_10_74" cx="0" cy="0" r="1" gradientUnits="userSpaceOnUse" gradientTransform="translate(108 31.5) rotate(-180) scale(108 0.5)">
<stop stop-color="white"/>
<stop offset="1" stop-color="#999999" stop-opacity="0.23"/>
</radialGradient>
<radialGradient id="paint4_radial_10_74" cx="0" cy="0" r="1" gradientUnits="userSpaceOnUse" gradientTransform="translate(108 187.5) rotate(-180) scale(108 0.5)">
<stop stop-color="white"/>
<stop offset="1" stop-color="#999999" stop-opacity="0.23"/>
</radialGradient>
<radialGradient id="paint5_radial_10_74" cx="0" cy="0" r="1" gradientUnits="userSpaceOnUse" gradientTransform="translate(176.5 108) rotate(90) scale(108 0.5)">
<stop stop-color="white"/>
<stop offset="1" stop-color="#999999" stop-opacity="0.23"/>
</radialGradient>
</defs>
</svg>
