<?xml version="1.0" encoding="UTF-8"?>
<!DOCTYPE svg PUBLIC "-//W3C//DTD SVG 1.1//EN" "http://www.w3.org/Graphics/SVG/1.1/DTD/svg11.dtd">
<svg xmlns="http://www.w3.org/2000/svg" version="1.1" width="1200px" height="675px" style="shape-rendering:geometricPrecision; text-rendering:geometricPrecision; image-rendering:optimizeQuality; fill-rule:evenodd; clip-rule:evenodd" xmlns:xlink="http://www.w3.org/1999/xlink">
<g><path style="opacity:0.999" fill="#dc2d01" d="M 275.5,349.5 C 274.986,351.512 274.82,353.512 275,355.5C 275.383,354.944 275.883,354.611 276.5,354.5C 280.456,402.425 262.456,439.925 222.5,467C 217.694,469.984 212.694,472.484 207.5,474.5C 207.53,473.503 207.03,472.836 206,472.5C 187.618,465.065 171.118,454.732 156.5,441.5C 156.5,441.167 156.5,440.833 156.5,440.5C 172.84,411.319 173.674,381.652 159,351.5C 146.571,330.259 128.404,316.259 104.5,309.5C 103.833,308.833 103.167,308.167 102.5,307.5C 103.167,307.5 103.5,307.167 103.5,306.5C 104.219,304.236 104.552,301.903 104.5,299.5C 106.512,275.07 114.178,252.737 127.5,232.5C 129.048,232.179 129.715,231.179 129.5,229.5C 130.5,229.167 131.167,228.5 131.5,227.5C 132.045,225.407 132.878,223.407 134,221.5C 139.377,215.792 144.377,209.792 149,203.5C 154.368,198.961 159.534,194.295 164.5,189.5C 165.5,188.167 166.5,188.167 167.5,189.5C 187.47,213.973 207.637,238.306 228,262.5C 237.675,275.173 247.341,287.84 257,300.5C 262.194,309.554 266.861,318.888 271,328.5C 273.586,335.265 275.086,342.265 275.5,349.5 Z"/></g>
<g><path style="opacity:0.255" fill="#6e5f56" d="M 131.5,227.5 C 131.167,228.5 130.5,229.167 129.5,229.5C 129.5,228.167 130.167,227.5 131.5,227.5 Z"/></g>
<g><path style="opacity:0.569" fill="#a55236" d="M 129.5,229.5 C 129.715,231.179 129.048,232.179 127.5,232.5C 127.932,231.29 128.599,230.29 129.5,229.5 Z"/></g>
<g><path style="opacity:0.951" fill="#5f5e5d" d="M 482.5,263.5 C 498.381,267.24 502.881,276.573 496,291.5C 487.798,300.07 478.965,300.736 469.5,293.5C 462.652,284.814 462.985,276.314 470.5,268C 474.187,265.375 478.187,263.875 482.5,263.5 Z"/></g>
<g><path style="opacity:0.955" fill="#5f5e5d" d="M 358.5,265.5 C 390.877,265.174 423.21,265.507 455.5,266.5C 456.815,275.059 456.815,283.559 455.5,292C 431.5,292.333 407.5,292.667 383.5,293C 384.827,307.137 384.827,321.304 383.5,335.5C 405.156,336.5 426.823,336.833 448.5,336.5C 448.5,344.833 448.5,353.167 448.5,361.5C 426.823,361.167 405.156,361.5 383.5,362.5C 384.655,383.79 384.822,405.123 384,426.5C 383.5,427 383,427.5 382.5,428C 374.118,428.803 365.785,428.636 357.5,427.5C 356.333,374.17 356.167,320.836 357,267.5C 357.717,266.956 358.217,266.289 358.5,265.5 Z"/></g>
<g><path style="opacity:0.963" fill="#5f5e5d" d="M 711.5,265.5 C 719.752,265.184 727.919,265.518 736,266.5C 736.631,287.221 736.631,307.887 736,328.5C 749.605,313.419 766.438,308.586 786.5,314C 807.73,322.909 820.564,338.742 825,361.5C 827.343,380.838 822.676,398.172 811,413.5C 794.444,431.458 774.611,436.291 751.5,428C 745.114,424.783 739.78,420.283 735.5,414.5C 734.507,419.12 734.173,423.786 734.5,428.5C 725.973,428.74 717.807,428.407 710,427.5C 709.333,374.167 709.333,320.833 710,267.5C 710.717,266.956 711.217,266.289 711.5,265.5 Z M 763.5,336.5 C 785.792,337.458 797.458,349.125 798.5,371.5C 798.678,385.464 793.011,396.298 781.5,404C 762.142,411.105 747.642,405.605 738,387.5C 736.926,382.318 735.759,377.151 734.5,372C 735.116,362.479 738.282,353.979 744,346.5C 749.69,341.343 756.19,338.009 763.5,336.5 Z"/></g>
<g><path style="opacity:0.114" fill="#725f54" d="M 104.5,299.5 C 104.552,301.903 104.219,304.236 103.5,306.5C 102.903,306.265 102.57,305.765 102.5,305C 102.954,302.97 103.62,301.137 104.5,299.5 Z"/></g>
<g><path style="opacity:1" fill="#fec202" d="M 102.5,307.5 C 103.167,308.167 103.833,308.833 104.5,309.5C 101.427,358.78 118.761,402.447 156.5,440.5C 156.5,440.833 156.5,441.167 156.5,441.5C 147.041,456.285 134.375,467.619 118.5,475.5C 119.243,476.182 119.909,476.849 120.5,477.5C 119.833,477.5 119.167,477.5 118.5,477.5C 88.5531,465.723 66.3864,445.389 52,416.5C 51.439,413.721 50.6056,411.054 49.5,408.5C 47.3538,399.603 45.5205,390.603 44,381.5C 43.7645,375.962 43.2645,370.462 42.5,365C 43.7488,358.284 44.4155,351.784 44.5,345.5C 44.8227,338.883 46.1561,332.549 48.5,326.5C 49.5,326.167 50.1667,325.5 50.5,324.5C 51.8495,318.629 54.1828,313.129 57.5,308C 71.8716,303.798 86.8716,303.631 102.5,307.5 Z"/></g>
<g><path style="opacity:1" fill="#fe9000" d="M 104.5,309.5 C 128.404,316.259 146.571,330.259 159,351.5C 173.674,381.652 172.84,411.319 156.5,440.5C 118.761,402.447 101.427,358.78 104.5,309.5 Z"/></g>
<g><path style="opacity:0.962" fill="#5f5e5d" d="M 566.5,312.5 C 572.176,312.334 577.843,312.501 583.5,313C 585.101,313.273 586.601,313.773 588,314.5C 588.667,323.5 588.667,332.5 588,341.5C 587.086,342.654 586.253,342.487 585.5,341C 581.95,340.216 578.45,339.383 575,338.5C 560.074,337.219 549.74,344.219 544,359.5C 543.793,363.089 543.293,366.589 542.5,370C 543.659,388.76 543.825,407.593 543,426.5C 542.25,427.126 541.416,427.626 540.5,428C 532.587,428.814 524.754,428.647 517,427.5C 516.5,390.168 516.333,352.835 516.5,315.5C 524.833,315.5 533.167,315.5 541.5,315.5C 541.334,320.844 541.501,326.177 542,331.5C 545.028,325.262 549.528,320.429 555.5,317C 559.514,315.951 563.18,314.451 566.5,312.5 Z"/></g>
<g><path style="opacity:0.959" fill="#5f5e5d" d="M 630.5,312.5 C 667.763,308.533 689.93,324.867 697,361.5C 697.667,366.5 697.667,371.5 697,376.5C 696.5,377 696,377.5 695.5,378C 667.502,378.5 639.502,378.667 611.5,378.5C 616.02,400.675 629.687,410.175 652.5,407C 653.949,405.883 655.616,405.216 657.5,405C 664.004,400.984 669.671,396.151 674.5,390.5C 681.495,393.997 688.495,397.497 695.5,401C 679.851,425.773 658.351,435.607 631,430.5C 604.859,424.485 589.526,407.819 585,380.5C 582.301,345.441 597.468,322.774 630.5,312.5 Z M 636.5,334.5 C 648.051,333.86 657.884,337.86 666,346.5C 667.312,348.955 668.478,351.455 669.5,354C 668.542,355.147 668.875,356.147 670.5,357C 651.167,357.667 631.833,357.667 612.5,357C 616.877,345.451 624.877,337.951 636.5,334.5 Z"/></g>
<g><path style="opacity:0.962" fill="#5e5e5d" d="M 869.5,312.5 C 890.26,308.698 908.26,313.698 923.5,327.5C 928.253,333.007 931.42,339.34 933,346.5C 933.828,373.739 933.661,400.905 932.5,428C 924.833,428.667 917.167,428.667 909.5,428C 908.697,423.586 908.197,419.086 908,414.5C 897.035,428.87 883.035,434.204 866,430.5C 865.667,430.833 865.333,431.167 865,431.5C 839.789,424.387 828.955,408.22 832.5,383C 839.973,366.295 852.64,356.961 870.5,355C 883.954,353.312 896.454,355.145 908,360.5C 908.412,346.892 901.912,338.392 888.5,335C 874.972,333.034 863.805,337.534 855,348.5C 848.336,344.667 842.003,340.333 836,335.5C 835.685,334.092 836.018,332.759 837,331.5C 845.866,321.656 856.699,315.322 869.5,312.5 Z M 876.5,375.5 C 886.62,374.563 896.287,376.063 905.5,380C 906.99,380.745 907.99,381.912 908.5,383.5C 901.275,407.425 886.275,414.425 863.5,404.5C 856.419,395.574 857.419,387.241 866.5,379.5C 869.701,377.58 873.034,376.246 876.5,375.5 Z"/></g>
<g><path style="opacity:0.96" fill="#5f5e5d" d="M 978.5,312.5 C 998.614,309.009 1016.11,314.009 1031,327.5C 1033.22,330.77 1035.05,334.27 1036.5,338C 1029.57,341.872 1022.41,345.372 1015,348.5C 1012.07,344.535 1008.57,341.035 1004.5,338C 995.5,333.333 986.5,333.333 977.5,338C 971.006,342.905 971.006,347.905 977.5,353C 991.45,357.728 1005.78,362.395 1020.5,367C 1038.5,377.499 1043.34,392.332 1035,411.5C 1020.52,428.652 1002.35,435.152 980.5,431C 962.489,427.644 949.822,417.644 942.5,401C 942.645,400.228 942.978,399.561 943.5,399C 950.734,395.597 958.068,392.431 965.5,389.5C 975.262,408.007 989.596,412.84 1008.5,404C 1013.87,398.45 1013.54,393.116 1007.5,388C 1003.94,386.054 1000.28,384.387 996.5,383C 981.895,381.367 968.561,376.7 956.5,369C 945.03,357.048 943.197,343.882 951,329.5C 958.628,321.114 967.795,315.448 978.5,312.5 Z"/></g>
<g><path style="opacity:0.96" fill="#5e5e5d" d="M 1156.5,377.5 C 1128.17,377.5 1099.83,377.5 1071.5,377.5C 1071.22,379.415 1071.55,381.081 1072.5,382.5C 1079.4,402.526 1093.4,410.693 1114.5,407C 1118.06,405.37 1121.39,403.37 1124.5,401C 1127.73,397.362 1131.06,393.862 1134.5,390.5C 1141.28,394.092 1148.28,397.092 1155.5,399.5C 1149.35,413.483 1139.01,423.316 1124.5,429C 1097.17,437.229 1074.17,430.063 1055.5,407.5C 1042.07,383.681 1042.23,359.681 1056,335.5C 1072.88,315.042 1094.38,307.876 1120.5,314C 1144.98,323.614 1157.31,341.614 1157.5,368C 1157.5,371.352 1157.16,374.518 1156.5,377.5 Z M 1097.5,334.5 C 1110.18,333.926 1120.35,338.593 1128,348.5C 1129.02,351.105 1129.85,353.772 1130.5,356.5C 1111.5,357.833 1092.5,357.833 1073.5,356.5C 1078.07,345.253 1086.07,337.92 1097.5,334.5 Z"/></g>
<g><path style="opacity:0.967" fill="#5f5e5d" d="M 469.5,315.5 C 478.167,315.5 486.833,315.5 495.5,315.5C 495.833,352.839 495.5,390.173 494.5,427.5C 486.167,428.833 477.833,428.833 469.5,427.5C 468.174,390.1 468.174,352.767 469.5,315.5 Z"/></g>
<g><path style="opacity:0.114" fill="#726053" d="M 50.5,324.5 C 50.1667,325.5 49.5,326.167 48.5,326.5C 48.5,325.167 49.1667,324.5 50.5,324.5 Z"/></g>
<g><path style="opacity:0.78" fill="#b05230" d="M 275.5,349.5 C 276.928,351.074 277.261,352.741 276.5,354.5C 277.261,352.741 276.928,351.074 275.5,349.5 Z"/></g>
<g><path style="opacity:0.114" fill="#725f54" d="M 1156.5,377.5 C 1128.67,378.498 1100.67,378.831 1072.5,378.5C 1072.5,379.833 1072.5,381.167 1072.5,382.5C 1071.55,381.081 1071.22,379.415 1071.5,377.5C 1099.83,377.5 1128.17,377.5 1156.5,377.5 Z"/></g>
<g><path style="opacity:0.495" fill="#e2a328" d="M 44.5,345.5 C 44.4155,351.784 43.7488,358.284 42.5,365C 43.2645,370.462 43.7645,375.962 44,381.5C 45.5205,390.603 47.3538,399.603 49.5,408.5C 41.0388,387.972 39.3721,366.972 44.5,345.5 Z"/></g>
<g><path style="opacity:1" fill="#fd9003" d="M 156.5,441.5 C 171.118,454.732 187.618,465.065 206,472.5C 207.03,472.836 207.53,473.503 207.5,474.5C 196.288,479.552 184.621,482.885 172.5,484.5C 164.634,483.88 156.801,483.214 149,482.5C 148.617,483.056 148.117,483.389 147.5,483.5C 146.167,483.5 144.833,483.5 143.5,483.5C 140.721,483.721 138.054,483.388 135.5,482.5C 133.698,481.542 131.698,480.875 129.5,480.5C 127.379,480.675 125.379,480.341 123.5,479.5C 122.71,478.599 121.71,477.932 120.5,477.5C 119.909,476.849 119.243,476.182 118.5,475.5C 134.375,467.619 147.041,456.285 156.5,441.5 Z"/></g>
<g><path style="opacity:0.114" fill="#715f54" d="M 118.5,477.5 C 119.167,477.5 119.833,477.5 120.5,477.5C 121.71,477.932 122.71,478.599 123.5,479.5C 121.447,479.598 119.78,478.931 118.5,477.5 Z"/></g>
<g><path style="opacity:0.114" fill="#715f54" d="M 129.5,480.5 C 131.698,480.875 133.698,481.542 135.5,482.5C 132.99,482.946 130.99,482.28 129.5,480.5 Z"/></g>
<g><path style="opacity:0.518" fill="#fca900" d="M 172.5,484.5 C 164.684,485.492 156.684,485.826 148.5,485.5C 148.167,484.833 147.833,484.167 147.5,483.5C 148.117,483.389 148.617,483.056 149,482.5C 156.801,483.214 164.634,483.88 172.5,484.5 Z"/></g>
<g><path style="opacity:0.114" fill="#725f54" d="M 143.5,483.5 C 144.833,483.5 146.167,483.5 147.5,483.5C 147.833,484.167 148.167,484.833 148.5,485.5C 146.219,485.923 144.552,485.256 143.5,483.5 Z"/></g>
</svg>
