<svg width="800" height="226" viewBox="0 0 800 226" fill="none" xmlns="http://www.w3.org/2000/svg">
<path fill-rule="evenodd" clip-rule="evenodd" d="M0 38.9655C0 17.4455 17.4251 0 38.92 0H186.816C208.311 0 225.736 17.4455 225.736 38.9655V164.898C225.736 187.162 197.595 196.824 183.947 179.247L141.28 124.295V190.931C141.28 210.299 125.597 226 106.252 226H38.92C17.4251 226 0 208.555 0 187.034V38.9655ZM38.92 31.1724C34.621 31.1724 31.136 34.6615 31.136 38.9655V187.034C31.136 191.338 34.621 194.828 38.92 194.828H107.419C109.569 194.828 110.144 193.083 110.144 190.931V101.573C110.144 79.3089 138.284 69.6462 151.932 87.2237L194.6 142.175V38.9655C194.6 34.6615 195.007 31.1724 190.708 31.1724H38.92Z" fill="#00E0D9"/>
<path fill-rule="evenodd" clip-rule="evenodd" d="M0 38.9655C0 17.4455 17.4251 0 38.92 0H186.816C208.311 0 225.736 17.4455 225.736 38.9655V164.898C225.736 187.162 197.595 196.824 183.947 179.247L141.28 124.295V190.931C141.28 210.299 125.597 226 106.252 226H38.92C17.4251 226 0 208.555 0 187.034V38.9655ZM38.92 31.1724C34.621 31.1724 31.136 34.6615 31.136 38.9655V187.034C31.136 191.338 34.621 194.828 38.92 194.828H107.419C109.569 194.828 110.144 193.083 110.144 190.931V101.573C110.144 79.3089 138.284 69.6462 151.932 87.2237L194.6 142.175V38.9655C194.6 34.6615 195.007 31.1724 190.708 31.1724H38.92Z" fill="url(#paint0_linear_6882_11487)"/>
<path fill-rule="evenodd" clip-rule="evenodd" d="M0 38.9655C0 17.4455 17.4251 0 38.92 0H186.816C208.311 0 225.736 17.4455 225.736 38.9655V164.898C225.736 187.162 197.595 196.824 183.947 179.247L141.28 124.295V190.931C141.28 210.299 125.597 226 106.252 226H38.92C17.4251 226 0 208.555 0 187.034V38.9655ZM38.92 31.1724C34.621 31.1724 31.136 34.6615 31.136 38.9655V187.034C31.136 191.338 34.621 194.828 38.92 194.828H107.419C109.569 194.828 110.144 193.083 110.144 190.931V101.573C110.144 79.3089 138.284 69.6462 151.932 87.2237L194.6 142.175V38.9655C194.6 34.6615 195.007 31.1724 190.708 31.1724H38.92Z" fill="url(#paint1_linear_6882_11487)" fill-opacity="0.4"/>
<path d="M186.816 0C208.31 0 225.736 17.4455 225.736 38.9655V164.898C225.736 187.162 197.595 196.824 183.947 179.247L141.279 124.295V190.931C141.279 210.299 125.597 226 106.251 226C108.401 226 110.143 224.255 110.143 222.103V101.573C110.143 79.3089 138.284 69.6462 151.932 87.2237L194.6 142.175V7.7931C194.6 3.48909 191.115 0 186.816 0Z" fill="#63F655"/>
<path d="M380.529 66.5398V125.651L323.28 66.5398H293.483V163.218H320.659V99.6865L383.012 163.218H407.705V66.5398H380.529Z" fill="#1A1A1A"/>
<path d="M458.083 141.672V124.547H518.919V103.968H458.083V88.0852H531.886V66.5398H430.355V163.218H533.403V141.672H458.083Z" fill="#1A1A1A"/>
<path d="M605.619 166.394C643.831 166.394 668.662 147.611 668.662 114.879C668.662 82.1464 643.831 63.3633 605.619 63.3633C567.407 63.3633 542.714 82.1464 542.714 114.879C542.714 147.611 567.407 166.394 605.619 166.394ZM605.619 143.468C584.375 143.468 571.27 133.109 571.27 114.879C571.27 96.6481 584.513 86.2897 605.619 86.2897C626.863 86.2897 639.969 96.6481 639.969 114.879C639.969 133.109 626.863 143.468 605.619 143.468Z" fill="#1A1A1A"/>
<path d="M772.824 66.5398V125.651L715.575 66.5398H685.778V163.218H712.954V99.6865L775.307 163.218H800V66.5398H772.824Z" fill="#1A1A1A"/>
<defs>
<linearGradient id="paint0_linear_6882_11487" x1="225.736" y1="226" x2="26.9823" y2="0.230535" gradientUnits="userSpaceOnUse">
<stop stop-color="#62F755"/>
<stop offset="1" stop-color="#8FF986" stop-opacity="0"/>
</linearGradient>
<linearGradient id="paint1_linear_6882_11487" x1="225.736" y1="226" x2="91.6154" y2="173.892" gradientUnits="userSpaceOnUse">
<stop stop-opacity="0.9"/>
<stop offset="1" stop-color="#1A1A1A" stop-opacity="0"/>
</linearGradient>
</defs>
</svg>
