<?xml version="1.0" encoding="UTF-8"?>
<!DOCTYPE svg PUBLIC "-//W3C//DTD SVG 1.1//EN" "http://www.w3.org/Graphics/SVG/1.1/DTD/svg11.dtd">
<svg xmlns="http://www.w3.org/2000/svg" version="1.1" width="889px" height="281px" style="shape-rendering:geometricPrecision; text-rendering:geometricPrecision; image-rendering:optimizeQuality; fill-rule:evenodd; clip-rule:evenodd" xmlns:xlink="http://www.w3.org/1999/xlink">
<g><path style="opacity:1" fill="#ec3348" d="M 214.5,28.5 C 214.643,30.2624 214.309,31.9291 213.5,33.5C 215.702,35.4114 217.369,37.7447 218.5,40.5C 220.878,41.9563 222.878,41.6229 224.5,39.5C 223.635,39.4361 222.635,39.1027 221.5,38.5C 220.614,37.675 220.281,36.675 220.5,35.5C 224.48,35.9742 227.147,38.1409 228.5,42C 227.833,43 227.167,44 226.5,45C 228.663,45.2453 230.33,46.2453 231.5,48C 233.81,48.4966 236.143,48.6633 238.5,48.5C 237.908,53.8628 239.742,58.5295 244,62.5C 244.018,66.0708 245.685,68.4042 249,69.5C 249.49,70.7932 249.657,72.1266 249.5,73.5C 247.833,73.5 246.167,73.5 244.5,73.5C 244.66,71.8008 244.494,70.1341 244,68.5C 242.333,67.5 241,66.1667 240,64.5C 239.667,64.8333 239.333,65.1667 239,65.5C 239.405,67.3794 240.238,69.2128 241.5,71C 241.215,72.8895 240.215,74.2229 238.5,75C 239.328,75.9147 240.328,76.5814 241.5,77C 239.893,78.049 239.227,79.549 239.5,81.5C 236.509,80.0961 233.343,79.0961 230,78.5C 228.091,79.1557 226.258,79.6557 224.5,80C 223.264,77.6463 221.597,75.6463 219.5,74C 221.229,72.2111 221.896,70.0444 221.5,67.5C 217.842,68.1276 215.342,66.7943 214,63.5C 213.692,64.3081 213.192,64.9747 212.5,65.5C 210.929,64.6906 209.262,64.3573 207.5,64.5C 175.92,41.6626 142.254,38.3293 106.5,54.5C 103.901,54.4506 101.734,53.4506 100,51.5C 98.2784,51.9615 96.445,52.1282 94.5,52C 99.6052,54.0384 99.6052,55.705 94.5,57C 95.624,57.2492 96.624,57.7492 97.5,58.5C 97.1667,58.8333 96.8333,59.1667 96.5,59.5C 93.0799,56.377 90.7466,57.0437 89.5,61.5C 89.9767,62.4776 90.6433,63.3109 91.5,64C 89.8659,64.4935 88.1992,64.6602 86.5,64.5C 86.5,65.8333 86.5,67.1667 86.5,68.5C 83.9512,68.4411 81.9512,69.4411 80.5,71.5C 78.7363,69.5213 76.7363,69.188 74.5,70.5C 67.4708,80.6304 68.1374,81.4637 76.5,73C 77.9653,72.3987 78.9653,72.8987 79.5,74.5C 78.675,75.3857 77.675,75.719 76.5,75.5C 76.1156,77.9294 75.449,80.2627 74.5,82.5C 73.5,82.5 72.5,82.5 71.5,82.5C 71.3671,85.8957 70.3671,86.2291 68.5,83.5C 68.1667,83.8333 67.8333,84.1667 67.5,84.5C 68.3742,86.7466 68.7076,89.0799 68.5,91.5C 67.5,91.5 66.5,91.5 65.5,91.5C 65.0371,94.4824 64.7038,97.4824 64.5,100.5C 63.8333,102.5 63.1667,104.5 62.5,106.5C 60.9256,106.937 59.7589,107.937 59,109.5C 56.7687,123.086 56.102,136.753 57,150.5C 57.2784,151.416 57.7784,152.082 58.5,152.5C 63.2781,174.407 73.9447,192.74 90.5,207.5C 90.8276,210.172 92.3276,211.839 95,212.5C 95.2069,216.089 95.7069,219.589 96.5,223C 95.552,223.483 94.552,223.649 93.5,223.5C 93.8333,220.5 92.5,219.167 89.5,219.5C 89.5499,221.59 88.5499,222.923 86.5,223.5C 85.52,220.914 85.1866,218.247 85.5,215.5C 83.1229,215.216 80.9562,215.216 79,215.5C 78.8333,215.833 78.6667,216.167 78.5,216.5C 80.1492,217.148 81.4825,218.148 82.5,219.5C 80.8348,221.419 79.8348,223.252 79.5,225C 75.6649,223.907 71.8315,223.407 68,223.5C 67.5,224.667 66.6667,225.5 65.5,226C 67.9574,227.512 67.9574,228.846 65.5,230C 66.056,230.383 66.3893,230.883 66.5,231.5C 33.4947,202.089 19.328,165.089 24,120.5C 25.5544,109.691 28.3877,99.3573 32.5,89.5C 34.0987,87.3962 35.932,85.3962 38,83.5C 40.7624,77.6379 43.2624,71.6379 45.5,65.5C 46.0256,63.7697 47.0256,62.4363 48.5,61.5C 49.5,61.5 50.5,61.5 51.5,61.5C 51.4914,59.6916 51.9914,58.0249 53,56.5C 59.0968,50.9094 64.5968,44.9094 69.5,38.5C 109.997,7.812 153.997,1.97867 201.5,21C 206.223,23.0217 210.557,25.5217 214.5,28.5 Z"/></g>
<g><path style="opacity:0.929" fill="#cf3b4e" d="M 69.5,38.5 C 64.5968,44.9094 59.0968,50.9094 53,56.5C 51.9914,58.0249 51.4914,59.6916 51.5,61.5C 50.5,61.5 49.5,61.5 48.5,61.5C 54.4279,52.9031 61.4279,45.2365 69.5,38.5 Z"/></g>
<g><path style="opacity:1" fill="#df3649" d="M 106.5,54.5 C 87.9331,65.7305 73.9331,81.0639 64.5,100.5C 64.7038,97.4824 65.0371,94.4824 65.5,91.5C 66.5,91.5 67.5,91.5 68.5,91.5C 68.7076,89.0799 68.3742,86.7466 67.5,84.5C 67.8333,84.1667 68.1667,83.8333 68.5,83.5C 70.3671,86.2291 71.3671,85.8957 71.5,82.5C 72.5,82.5 73.5,82.5 74.5,82.5C 75.449,80.2627 76.1156,77.9294 76.5,75.5C 77.675,75.719 78.675,75.3857 79.5,74.5C 78.9653,72.8987 77.9653,72.3987 76.5,73C 68.1374,81.4637 67.4708,80.6304 74.5,70.5C 76.7363,69.188 78.7363,69.5213 80.5,71.5C 81.9512,69.4411 83.9512,68.4411 86.5,68.5C 86.5,67.1667 86.5,65.8333 86.5,64.5C 88.1992,64.6602 89.8659,64.4935 91.5,64C 90.6433,63.3109 89.9767,62.4776 89.5,61.5C 90.7466,57.0437 93.0799,56.377 96.5,59.5C 96.8333,59.1667 97.1667,58.8333 97.5,58.5C 96.624,57.7492 95.624,57.2492 94.5,57C 99.6052,55.705 99.6052,54.0384 94.5,52C 96.445,52.1282 98.2784,51.9615 100,51.5C 101.734,53.4506 103.901,54.4506 106.5,54.5 Z"/></g>
<g><path style="opacity:0.547" fill="#d3344c" d="M 680.5,60.5 C 696.661,59.3385 712.995,59.1718 729.5,60C 730.252,60.6708 730.586,61.5041 730.5,62.5C 729.711,62.2172 729.044,61.7172 728.5,61C 712.503,60.5001 696.503,60.3334 680.5,60.5 Z"/></g>
<g><path style="opacity:1" fill="#ec3247" d="M 616.5,61.5 C 617.818,70.7052 617.818,80.0386 616.5,89.5C 600.848,90.4994 585.181,90.8327 569.5,90.5C 568.55,80.5522 568.216,70.5522 568.5,60.5C 584.578,60.1825 600.578,60.5159 616.5,61.5 Z"/></g>
<g><path style="opacity:1" fill="#ed3247" d="M 630.5,59.5 C 644.235,60.1747 658.069,60.8414 672,61.5C 672.5,111.832 672.667,162.166 672.5,212.5C 656.675,213.496 640.675,213.83 624.5,213.5C 624.333,162.499 624.5,111.499 625,60.5C 626.699,59.5939 628.533,59.2606 630.5,59.5 Z"/></g>
<g><path style="opacity:1" fill="#ed3247" d="M 680.5,60.5 C 696.503,60.3334 712.503,60.5001 728.5,61C 729.044,61.7172 729.711,62.2172 730.5,62.5C 730.818,71.7506 730.485,80.9172 729.5,90C 713.17,90.4999 696.837,90.6666 680.5,90.5C 680.5,80.5 680.5,70.5 680.5,60.5 Z"/></g>
<g><path style="opacity:1" fill="#ec3348" d="M 447.5,139.5 C 446.542,139.047 445.708,138.381 445,137.5C 444.683,139.301 444.016,139.634 443,138.5C 443.979,140.279 443.646,141.945 442,143.5C 440.379,140.699 440.545,138.199 442.5,136C 442.53,132.034 442.364,127.867 442,123.5C 441.692,124.308 441.192,124.975 440.5,125.5C 439.051,122.268 437.884,118.935 437,115.5C 433.978,114.357 433.812,113.023 436.5,111.5C 437.251,112.376 437.751,113.376 438,114.5C 439.468,110.082 437.968,107.748 433.5,107.5C 433.67,108.822 433.337,109.989 432.5,111C 421.5,111.667 410.5,111.667 399.5,111C 409.828,110.5 420.161,110.334 430.5,110.5C 430.5,109.5 430.5,108.5 430.5,107.5C 415.133,107.163 399.8,107.663 384.5,109C 386.81,109.497 389.143,109.663 391.5,109.5C 391.883,114.468 390.216,115.468 386.5,112.5C 386.167,113 385.833,113.5 385.5,114C 386.707,115.3 387.374,116.8 387.5,118.5C 388.552,118.351 389.552,118.517 390.5,119C 389.495,120.507 388.162,121.673 386.5,122.5C 387.077,124.55 388.41,125.55 390.5,125.5C 391.61,122.111 392.61,118.778 393.5,115.5C 393.5,122.167 393.5,128.833 393.5,135.5C 384.833,135.5 376.167,135.5 367.5,135.5C 367.333,146.505 367.5,157.505 368,168.5C 369.992,173.336 373.659,175.669 379,175.5C 383.315,175.004 387.482,174.004 391.5,172.5C 392.46,184.783 392.794,197.117 392.5,209.5C 383.284,213.924 373.451,215.924 363,215.5C 347.729,216.857 335.063,211.857 325,200.5C 323.133,195.898 321.466,191.232 320,186.5C 320.156,169.137 319.322,152.137 317.5,135.5C 314.103,134.802 310.603,134.135 307,133.5C 306.333,122.5 306.333,111.5 307,100.5C 308.039,99.7562 308.539,98.7562 308.5,97.5C 312.167,97.5 315.833,97.5 319.5,97.5C 319.169,89.4723 319.502,81.4723 320.5,73.5C 335.126,68.6242 349.793,63.9575 364.5,59.5C 365.647,59.8178 366.481,60.4844 367,61.5C 367.5,73.4954 367.667,85.4954 367.5,97.5C 390.169,97.3334 412.836,97.5 435.5,98C 436.701,98.9025 437.535,100.069 438,101.5C 441.479,114.102 444.646,126.768 447.5,139.5 Z"/></g>
<g><path style="opacity:0.782" fill="#d4354c" d="M 616.5,61.5 C 600.578,60.5159 584.578,60.1825 568.5,60.5C 568.216,70.5522 568.55,80.5522 569.5,90.5C 567.525,80.5541 566.858,70.2208 567.5,59.5C 584.201,58.8482 600.534,59.5149 616.5,61.5 Z"/></g>
<g><path style="opacity:1" fill="#ec3348" d="M 214.5,28.5 C 246.05,47.5394 265.883,75.2061 274,111.5C 274.497,113.81 274.663,116.143 274.5,118.5C 274.5,130.5 274.5,142.5 274.5,154.5C 273.294,168.447 269.294,181.447 262.5,193.5C 259.806,194.536 258.306,196.536 258,199.5C 257.035,197.74 255.868,197.406 254.5,198.5C 254.977,199.478 255.643,200.311 256.5,201C 254.454,205.062 251.954,208.896 249,212.5C 247.307,211.816 245.807,210.816 244.5,209.5C 241.901,212.094 242.234,213.594 245.5,214C 244.62,215.356 244.286,216.856 244.5,218.5C 243.5,218.5 242.5,218.5 241.5,218.5C 241.5,219.833 241.5,221.167 241.5,222.5C 240.5,222.5 239.5,222.5 238.5,222.5C 238.344,226.135 237.178,226.468 235,223.5C 234.383,224.449 234.549,225.282 235.5,226C 233.699,226.317 233.366,226.984 234.5,228C 232.893,229.049 232.227,230.549 232.5,232.5C 221.699,242.278 209.366,249.611 195.5,254.5C 188.04,255.779 181.04,257.779 174.5,260.5C 136.278,267.555 101.612,259.388 70.5,236C 68.9586,234.629 67.6253,233.129 66.5,231.5C 66.3893,230.883 66.056,230.383 65.5,230C 67.9574,228.846 67.9574,227.512 65.5,226C 66.6667,225.5 67.5,224.667 68,223.5C 71.8315,223.407 75.6649,223.907 79.5,225C 79.8348,223.252 80.8348,221.419 82.5,219.5C 81.4825,218.148 80.1492,217.148 78.5,216.5C 78.6667,216.167 78.8333,215.833 79,215.5C 80.9562,215.216 83.1229,215.216 85.5,215.5C 85.1866,218.247 85.52,220.914 86.5,223.5C 88.5499,222.923 89.5499,221.59 89.5,219.5C 92.5,219.167 93.8333,220.5 93.5,223.5C 94.552,223.649 95.552,223.483 96.5,223C 95.7069,219.589 95.2069,216.089 95,212.5C 92.3276,211.839 90.8276,210.172 90.5,207.5C 104.387,218.613 120.054,225.613 137.5,228.5C 137.918,229.222 138.584,229.722 139.5,230C 142.833,230.167 146.167,230.333 149.5,230.5C 153.239,230.486 156.572,229.82 159.5,228.5C 199.936,222.238 226.436,199.571 239,160.5C 241.07,150.941 242.237,141.275 242.5,131.5C 242.666,126.489 242.499,121.489 242,116.5C 241.098,114.569 239.931,112.903 238.5,111.5C 232.625,92.9459 222.291,77.2792 207.5,64.5C 209.262,64.3573 210.929,64.6906 212.5,65.5C 213.192,64.9747 213.692,64.3081 214,63.5C 215.342,66.7943 217.842,68.1276 221.5,67.5C 221.896,70.0444 221.229,72.2111 219.5,74C 221.597,75.6463 223.264,77.6463 224.5,80C 226.258,79.6557 228.091,79.1557 230,78.5C 233.343,79.0961 236.509,80.0961 239.5,81.5C 239.227,79.549 239.893,78.049 241.5,77C 240.328,76.5814 239.328,75.9147 238.5,75C 240.215,74.2229 241.215,72.8895 241.5,71C 240.238,69.2128 239.405,67.3794 239,65.5C 239.333,65.1667 239.667,64.8333 240,64.5C 241,66.1667 242.333,67.5 244,68.5C 244.494,70.1341 244.66,71.8008 244.5,73.5C 246.167,73.5 247.833,73.5 249.5,73.5C 249.657,72.1266 249.49,70.7932 249,69.5C 245.685,68.4042 244.018,66.0708 244,62.5C 239.742,58.5295 237.908,53.8628 238.5,48.5C 236.143,48.6633 233.81,48.4966 231.5,48C 230.33,46.2453 228.663,45.2453 226.5,45C 227.167,44 227.833,43 228.5,42C 227.147,38.1409 224.48,35.9742 220.5,35.5C 220.281,36.675 220.614,37.675 221.5,38.5C 222.635,39.1027 223.635,39.4361 224.5,39.5C 222.878,41.6229 220.878,41.9563 218.5,40.5C 217.369,37.7447 215.702,35.4114 213.5,33.5C 214.309,31.9291 214.643,30.2624 214.5,28.5 Z"/></g>
<g><path style="opacity:1" fill="#cf3a4e" d="M 127.5,80.5 C 121.5,80.5 115.5,80.5 109.5,80.5C 115.49,77.9052 121.49,77.9052 127.5,80.5 Z"/></g>
<g><path style="opacity:1" fill="#cf3d4d" d="M 190.5,80.5 C 184.167,80.5 177.833,80.5 171.5,80.5C 177.833,77.8333 184.167,77.8333 190.5,80.5 Z"/></g>
<g><path style="opacity:1" fill="#ec3348" d="M 109.5,80.5 C 115.5,80.5 121.5,80.5 127.5,80.5C 143.184,87.5451 148.184,99.2117 142.5,115.5C 141.069,115.881 140.236,116.881 140,118.5C 139.667,118.167 139.333,117.833 139,117.5C 138.517,118.448 138.351,119.448 138.5,120.5C 137.5,120.5 136.5,120.5 135.5,120.5C 134.833,122.5 134.167,124.5 133.5,126.5C 130.833,127.366 128.167,128.366 125.5,129.5C 119.661,130.255 113.994,130.588 108.5,130.5C 92.2393,121.671 87.7393,108.671 95,91.5C 98.4698,86.0173 103.303,82.3506 109.5,80.5 Z"/></g>
<g><path style="opacity:1" fill="#ec3348" d="M 171.5,80.5 C 177.833,80.5 184.167,80.5 190.5,80.5C 201.469,84.9109 207.469,93.0776 208.5,105C 205.325,125.088 193.658,133.755 173.5,131C 159.245,125.332 153.079,114.832 155,99.5C 157.124,90.2108 162.624,83.8775 171.5,80.5 Z"/></g>
<g><path style="opacity:1" fill="#da3b4c" d="M 45.5,65.5 C 43.2624,71.6379 40.7624,77.6379 38,83.5C 35.932,85.3962 34.0987,87.3962 32.5,89.5C 35.2827,80.5972 39.6161,72.5972 45.5,65.5 Z"/></g>
<g><path style="opacity:0.22" fill="#c53747" d="M 614.5,98.5 C 585.498,98.3334 556.498,98.5 527.5,99C 526.627,100.045 525.627,100.878 524.5,101.5C 524.511,99.9826 525.177,98.8159 526.5,98C 556.003,97.1695 585.336,97.3362 614.5,98.5 Z"/></g>
<g><path style="opacity:0.219" fill="#c73748" d="M 682.5,98.5 C 697.902,97.1697 713.402,97.1697 729,98.5C 729.831,137.002 729.664,175.336 728.5,213.5C 728.5,213.167 728.5,212.833 728.5,212.5C 728.667,174.832 728.5,137.165 728,99.5C 712.911,98.5092 697.745,98.1758 682.5,98.5 Z"/></g>
<g><path style="opacity:1" fill="#e2354a" d="M 504.5,113.5 C 503.307,110.316 500.974,108.649 497.5,108.5C 498.541,105.542 498.541,102.542 497.5,99.5C 486.183,101.671 474.849,101.671 463.5,99.5C 462.269,100.651 462.269,101.817 463.5,103C 462.552,103.483 461.552,103.649 460.5,103.5C 458.941,110.306 458.107,117.306 458,124.5C 457.282,123.549 456.449,123.383 455.5,124C 454.391,125.876 453.391,127.709 452.5,129.5C 453.86,122.396 455.693,115.396 458,108.5C 458.928,104.702 460.428,101.202 462.5,98C 474.833,97.3333 487.167,97.3333 499.5,98C 501.653,102.961 503.32,108.127 504.5,113.5 Z"/></g>
<g><path style="opacity:1" fill="#ec3348" d="M 745.5,120.5 C 747.556,117.951 750.222,116.451 753.5,116C 754.123,112.546 755.789,109.713 758.5,107.5C 766.999,101.049 776.666,97.2157 787.5,96C 811.789,92.6504 832.289,99.8171 849,117.5C 868.1,145.231 866.766,171.898 845,197.5C 825.05,214.495 802.217,219.661 776.5,213C 739.042,197.581 726.209,170.415 738,131.5C 740.051,127.354 742.551,123.687 745.5,120.5 Z M 810.5,141.5 C 815.425,148.1 816.759,155.434 814.5,163.5C 807.745,175.472 798.411,177.972 786.5,171C 778.87,162.711 777.704,153.545 783,143.5C 791.656,133.924 800.822,133.257 810.5,141.5 Z"/></g>
<g><path style="opacity:1" fill="#ed3247" d="M 614.5,98.5 C 616.494,136.485 617.161,174.819 616.5,213.5C 600.5,213.5 584.5,213.5 568.5,213.5C 568.667,179.165 568.5,144.832 568,110.5C 558.298,142.337 548.465,174.003 538.5,205.5C 537.163,207.374 535.829,209.374 534.5,211.5C 521.851,212.499 509.184,212.832 496.5,212.5C 496.421,211.07 496.754,209.736 497.5,208.5C 496.675,207.614 495.675,207.281 494.5,207.5C 494.157,204.281 494.824,202.114 496.5,201C 495.132,198.431 493.632,195.931 492,193.5C 491.316,192.216 491.483,191.049 492.5,190C 491.255,189.209 489.922,188.709 488.5,188.5C 485.735,181.712 483.235,174.712 481,167.5C 475.909,182.697 470.743,197.864 465.5,213C 452.167,213.667 438.833,213.667 425.5,213C 424.663,211.989 424.33,210.822 424.5,209.5C 423.089,203.052 421.756,196.552 420.5,190C 420.63,186.975 420.963,183.975 421.5,181C 420.382,178.941 419.715,176.774 419.5,174.5C 417.833,174.5 416.167,174.5 414.5,174.5C 414.005,172.176 414.005,170.009 414.5,168C 413.783,165.341 412.783,162.841 411.5,160.5C 412.796,157.895 411.796,156.562 408.5,156.5C 407.309,149.737 405.809,143.071 404,136.5C 403.623,135.058 402.79,134.058 401.5,133.5C 398.736,126.04 396.236,118.374 394,110.5C 393.506,112.134 393.34,113.801 393.5,115.5C 392.61,118.778 391.61,122.111 390.5,125.5C 388.41,125.55 387.077,124.55 386.5,122.5C 388.162,121.673 389.495,120.507 390.5,119C 389.552,118.517 388.552,118.351 387.5,118.5C 387.374,116.8 386.707,115.3 385.5,114C 385.833,113.5 386.167,113 386.5,112.5C 390.216,115.468 391.883,114.468 391.5,109.5C 389.143,109.663 386.81,109.497 384.5,109C 399.8,107.663 415.133,107.163 430.5,107.5C 430.5,108.5 430.5,109.5 430.5,110.5C 420.161,110.334 409.828,110.5 399.5,111C 410.5,111.667 421.5,111.667 432.5,111C 433.337,109.989 433.67,108.822 433.5,107.5C 437.968,107.748 439.468,110.082 438,114.5C 437.751,113.376 437.251,112.376 436.5,111.5C 433.812,113.023 433.978,114.357 437,115.5C 437.884,118.935 439.051,122.268 440.5,125.5C 441.192,124.975 441.692,124.308 442,123.5C 442.364,127.867 442.53,132.034 442.5,136C 440.545,138.199 440.379,140.699 442,143.5C 443.646,141.945 443.979,140.279 443,138.5C 444.016,139.634 444.683,139.301 445,137.5C 445.708,138.381 446.542,139.047 447.5,139.5C 447.81,140.738 448.31,140.738 449,139.5C 449.679,135.961 450.846,132.628 452.5,129.5C 453.391,127.709 454.391,125.876 455.5,124C 456.449,123.383 457.282,123.549 458,124.5C 458.107,117.306 458.941,110.306 460.5,103.5C 461.552,103.649 462.552,103.483 463.5,103C 462.269,101.817 462.269,100.651 463.5,99.5C 474.849,101.671 486.183,101.671 497.5,99.5C 498.541,102.542 498.541,105.542 497.5,108.5C 500.974,108.649 503.307,110.316 504.5,113.5C 507.656,122.771 510.823,132.105 514,141.5C 517.511,128.122 521.011,114.789 524.5,101.5C 525.627,100.878 526.627,100.045 527.5,99C 556.498,98.5 585.498,98.3334 614.5,98.5 Z"/></g>
<g><path style="opacity:0.631" fill="#d73e58" d="M 857.5,101.5 C 860.518,101.335 863.518,101.502 866.5,102C 867.071,103.205 867.738,104.372 868.5,105.5C 869.5,104.167 870.5,102.833 871.5,101.5C 873.284,104.398 873.618,107.398 872.5,110.5C 871.719,109.271 871.219,107.938 871,106.5C 870.259,110.185 868.759,110.851 866.5,108.5C 865.833,109.167 865.167,109.833 864.5,110.5C 863.637,108.229 863.637,105.895 864.5,103.5C 863.5,103.5 862.5,103.5 861.5,103.5C 861.808,105.924 861.474,108.257 860.5,110.5C 859.745,107.348 858.745,104.348 857.5,101.5 Z"/></g>
<g><path style="opacity:0.197" fill="#c43343" d="M 630.5,59.5 C 644.745,59.1765 658.912,59.5098 673,60.5C 673.832,111.335 673.665,162.002 672.5,212.5C 672.667,162.166 672.5,111.832 672,61.5C 658.069,60.8414 644.235,60.1747 630.5,59.5 Z"/></g>
<g><path style="opacity:1" fill="#ee3248" d="M 682.5,98.5 C 697.745,98.1758 712.911,98.5092 728,99.5C 728.5,137.165 728.667,174.832 728.5,212.5C 713.167,212.5 697.833,212.5 682.5,212.5C 682.5,174.5 682.5,136.5 682.5,98.5 Z"/></g>
<g><path style="opacity:0.31" fill="#cb3a4d" d="M 308.5,97.5 C 308.539,98.7562 308.039,99.7562 307,100.5C 306.333,111.5 306.333,122.5 307,133.5C 310.603,134.135 314.103,134.802 317.5,135.5C 313.563,135.793 309.73,135.46 306,134.5C 305.333,122.833 305.333,111.167 306,99.5C 306.708,98.6195 307.542,97.9528 308.5,97.5 Z"/></g>
<g><path style="opacity:0.945" fill="#d1384a" d="M 758.5,107.5 C 755.789,109.713 754.123,112.546 753.5,116C 750.222,116.451 747.556,117.951 745.5,120.5C 748.833,115.167 753.167,110.833 758.5,107.5 Z"/></g>
<g><path style="opacity:1" fill="#d2384b" d="M 238.5,111.5 C 239.931,112.903 241.098,114.569 242,116.5C 242.499,121.489 242.666,126.489 242.5,131.5C 241.454,124.89 240.121,118.223 238.5,111.5 Z"/></g>
<g><path style="opacity:1" fill="#d6374b" d="M 142.5,115.5 C 139.652,123.181 134.318,128.348 126.5,131C 120.449,131.746 114.449,131.579 108.5,130.5C 113.994,130.588 119.661,130.255 125.5,129.5C 128.167,128.366 130.833,127.366 133.5,126.5C 134.167,124.5 134.833,122.5 135.5,120.5C 136.5,120.5 137.5,120.5 138.5,120.5C 138.351,119.448 138.517,118.448 139,117.5C 139.333,117.833 139.667,118.167 140,118.5C 140.236,116.881 141.069,115.881 142.5,115.5 Z"/></g>
<g><path style="opacity:0.902" fill="#d4344b" d="M 62.5,106.5 C 57.6051,121.499 56.2718,136.832 58.5,152.5C 57.7784,152.082 57.2784,151.416 57,150.5C 56.102,136.753 56.7687,123.086 59,109.5C 59.7589,107.937 60.9256,106.937 62.5,106.5 Z"/></g>
<g><path style="opacity:0.98" fill="#d23649" d="M 274.5,118.5 C 277.167,130.5 277.167,142.5 274.5,154.5C 274.5,142.5 274.5,130.5 274.5,118.5 Z"/></g>
<g><path style="opacity:1" fill="#eb3348" d="M 112.5,141.5 C 136.486,140.988 146.986,152.654 144,176.5C 137.67,190.462 126.837,196.295 111.5,194C 92.9323,186.359 87.4323,173.192 95,154.5C 99.041,147.609 104.874,143.276 112.5,141.5 Z"/></g>
<g><path style="opacity:1" fill="#eb3348" d="M 156.5,158.5 C 160.463,152.961 165.13,147.961 170.5,143.5C 191.739,138.29 204.406,146.456 208.5,168C 204.143,190.848 190.81,198.848 168.5,192C 156.163,183.819 152.163,172.652 156.5,158.5 Z"/></g>
<g><path style="opacity:1" fill="#d43b4e" d="M 401.5,133.5 C 402.79,134.058 403.623,135.058 404,136.5C 405.809,143.071 407.309,149.737 408.5,156.5C 405.355,149.175 403.021,141.509 401.5,133.5 Z"/></g>
<g><path style="opacity:0.286" fill="#cd3b4c" d="M 810.5,141.5 C 812.729,142.055 814.395,143.389 815.5,145.5C 815.833,148.5 816.167,151.5 816.5,154.5C 816.483,157.913 815.816,160.913 814.5,163.5C 816.759,155.434 815.425,148.1 810.5,141.5 Z"/></g>
<g><path style="opacity:1" fill="#cf384b" d="M 170.5,143.5 C 165.13,147.961 160.463,152.961 156.5,158.5C 159.106,151.561 163.772,146.561 170.5,143.5 Z"/></g>
<g><path style="opacity:0.969" fill="#de374c" d="M 682.5,98.5 C 682.5,136.5 682.5,174.5 682.5,212.5C 697.833,212.5 713.167,212.5 728.5,212.5C 728.5,212.833 728.5,213.167 728.5,213.5C 712.833,213.5 697.167,213.5 681.5,213.5C 681.168,174.996 681.501,136.663 682.5,98.5 Z"/></g>
<g><path style="opacity:1" fill="#df364b" d="M 408.5,156.5 C 411.796,156.562 412.796,157.895 411.5,160.5C 412.783,162.841 413.783,165.341 414.5,168C 414.005,170.009 414.005,172.176 414.5,174.5C 416.167,174.5 417.833,174.5 419.5,174.5C 419.715,176.774 420.382,178.941 421.5,181C 420.963,183.975 420.63,186.975 420.5,190C 421.756,196.552 423.089,203.052 424.5,209.5C 418.402,192.194 413.068,174.528 408.5,156.5 Z"/></g>
<g><path style="opacity:0.424" fill="#c5394b" d="M 391.5,172.5 C 392.117,172.611 392.617,172.944 393,173.5C 393.826,185.674 393.66,197.674 392.5,209.5C 392.794,197.117 392.46,184.783 391.5,172.5 Z"/></g>
<g><path style="opacity:0.953" fill="#d93448" d="M 488.5,188.5 C 489.922,188.709 491.255,189.209 492.5,190C 491.483,191.049 491.316,192.216 492,193.5C 493.632,195.931 495.132,198.431 496.5,201C 494.824,202.114 494.157,204.281 494.5,207.5C 495.675,207.281 496.675,207.614 497.5,208.5C 496.754,209.736 496.421,211.07 496.5,212.5C 509.184,212.832 521.851,212.499 534.5,211.5C 535.829,209.374 537.163,207.374 538.5,205.5C 538.244,207.937 537.577,210.271 536.5,212.5C 522.833,213.833 509.167,213.833 495.5,212.5C 492.349,204.717 490.016,196.717 488.5,188.5 Z"/></g>
<g><path style="opacity:1" fill="#de374b" d="M 262.5,193.5 C 255.585,208.764 245.585,221.764 232.5,232.5C 232.227,230.549 232.893,229.049 234.5,228C 233.366,226.984 233.699,226.317 235.5,226C 234.549,225.282 234.383,224.449 235,223.5C 237.178,226.468 238.344,226.135 238.5,222.5C 239.5,222.5 240.5,222.5 241.5,222.5C 241.5,221.167 241.5,219.833 241.5,218.5C 242.5,218.5 243.5,218.5 244.5,218.5C 244.286,216.856 244.62,215.356 245.5,214C 242.234,213.594 241.901,212.094 244.5,209.5C 245.807,210.816 247.307,211.816 249,212.5C 251.954,208.896 254.454,205.062 256.5,201C 255.643,200.311 254.977,199.478 254.5,198.5C 255.868,197.406 257.035,197.74 258,199.5C 258.306,196.536 259.806,194.536 262.5,193.5 Z"/></g>
<g><path style="opacity:0.986" fill="#ce3a4d" d="M 137.5,228.5 C 144.905,229.239 152.239,229.239 159.5,228.5C 156.572,229.82 153.239,230.486 149.5,230.5C 146.167,230.333 142.833,230.167 139.5,230C 138.584,229.722 137.918,229.222 137.5,228.5 Z"/></g>
<g><path style="opacity:0.91" fill="#d0394f" d="M 195.5,254.5 C 188.935,257.684 181.935,259.684 174.5,260.5C 181.04,257.779 188.04,255.779 195.5,254.5 Z"/></g>
</svg>
