<svg width="156" height="156" viewBox="0 0 156 156" fill="none" xmlns="http://www.w3.org/2000/svg">
<path fill-rule="evenodd" clip-rule="evenodd" d="M114.481 103.11L128.917 87.8589L127.736 86.7413L128.968 86.7075L127.688 40.0865C127.324 26.8367 116.288 16.3905 103.038 16.7543L104.352 64.6066L44.21 7.67901C54.4333 2.75765 65.8946 0 78 0C121.078 0 156 34.9218 156 78C156 104.43 142.855 127.789 122.746 141.897L37.8492 57L24.8492 70H23V71.8492V112C23 125.255 33.7452 136 47 136V95.8492L103.043 151.893C95.183 154.556 86.7601 156 78 156C34.9218 156 0 121.078 0 78C0 54.7671 10.1575 33.9067 26.2739 19.6172L114.481 103.11Z" fill="black"/>
</svg>