<svg xmlns="http://www.w3.org/2000/svg" width="24" height="24" viewBox="0 0 24 24" fill="none" stroke="currentColor" stroke-width="2" stroke-linecap="round" stroke-linejoin="round" class="lucide lucide-scroll-text" style=""><path d="M15 12h-5" class="PBLbKgPT_0"></path><path d="M15 8h-5" class="PBLbKgPT_1"></path><path d="M19 17V5a2 2 0 0 0-2-2H4" class="PBLbKgPT_2"></path><path d="M8 21h12a2 2 0 0 0 2-2v-1a1 1 0 0 0-1-1H11a1 1 0 0 0-1 1v1a2 2 0 1 1-4 0V5a2 2 0 1 0-4 0v2a1 1 0 0 0 1 1h3" class="PBLbKgPT_3"></path><style data-made-with="vivus-instant">.PBLbKgPT_0{stroke-dasharray:5 7;stroke-dashoffset:6;animation:PBLbKgPT_draw_0 2500ms linear 0ms infinite,PBLbKgPT_fade 2500ms linear 0ms infinite;}.PBLbKgPT_1{stroke-dasharray:5 7;stroke-dashoffset:6;animation:PBLbKgPT_draw_1 2500ms linear 0ms infinite,PBLbKgPT_fade 2500ms linear 0ms infinite;}.PBLbKgPT_2{stroke-dasharray:29 31;stroke-dashoffset:30;animation:PBLbKgPT_draw_2 2500ms linear 0ms infinite,PBLbKgPT_fade 2500ms linear 0ms infinite;}.PBLbKgPT_3{stroke-dasharray:64 66;stroke-dashoffset:65;animation:PBLbKgPT_draw_3 2500ms linear 0ms infinite,PBLbKgPT_fade 2500ms linear 0ms infinite;}@keyframes PBLbKgPT_draw{100%{stroke-dashoffset:0;}}@keyframes PBLbKgPT_fade{0%{stroke-opacity:1;}84%{stroke-opacity:1;}100%{stroke-opacity:0;}}@keyframes PBLbKgPT_draw_0{4%{stroke-dashoffset: 6}6.242990654205608%{ stroke-dashoffset: 0;}100%{ stroke-dashoffset: 0;}}@keyframes PBLbKgPT_draw_1{6.242990654205608%{stroke-dashoffset: 6}8.485981308411215%{ stroke-dashoffset: 0;}100%{ stroke-dashoffset: 0;}}@keyframes PBLbKgPT_draw_2{8.485981308411215%{stroke-dashoffset: 30}19.700934579439252%{ stroke-dashoffset: 0;}100%{ stroke-dashoffset: 0;}}@keyframes PBLbKgPT_draw_3{19.700934579439252%{stroke-dashoffset: 65}44%{ stroke-dashoffset: 0;}100%{ stroke-dashoffset: 0;}}</style></svg>