<svg xmlns="http://www.w3.org/2000/svg" width="24" height="24" viewBox="0 0 24 24" fill="none" stroke="currentColor" stroke-width="2" stroke-linecap="round" stroke-linejoin="round" class="lucide lucide-shield-alert" style=""><path d="M20 13c0 5-3.5 7.5-7.66 8.95a1 1 0 0 1-.67-.01C7.5 20.5 4 18 4 13V6a1 1 0 0 1 1-1c2 0 4.5-1.2 6.24-2.72a1.17 1.17 0 0 1 1.52 0C14.51 3.81 17 5 19 5a1 1 0 0 1 1 1z" class="boCRvArG_0"></path><path d="M12 8v4" class="boCRvArG_1"></path><path d="M12 16h.01" class="boCRvArG_2"></path><style data-made-with="vivus-instant">.boCRvArG_0{stroke-dasharray:59 61;stroke-dashoffset:60;animation:boCRvArG_draw_0 2300ms linear 0ms infinite,boCRvArG_fade 2300ms linear 0ms infinite;}.boCRvArG_1{stroke-dasharray:4 6;stroke-dashoffset:5;animation:boCRvArG_draw_1 2300ms linear 0ms infinite,boCRvArG_fade 2300ms linear 0ms infinite;}.boCRvArG_2{stroke-dasharray:1 3;stroke-dashoffset:2;animation:boCRvArG_draw_2 2300ms linear 0ms infinite,boCRvArG_fade 2300ms linear 0ms infinite;}@keyframes boCRvArG_draw{100%{stroke-dashoffset:0;}}@keyframes boCRvArG_fade{0%{stroke-opacity:1;}82.6086956521739%{stroke-opacity:1;}100%{stroke-opacity:0;}}@keyframes boCRvArG_draw_0{4.3478260869565215%{stroke-dashoffset: 60}35.49643088903309%{ stroke-dashoffset: 0;}100%{ stroke-dashoffset: 0;}}@keyframes boCRvArG_draw_1{35.49643088903309%{stroke-dashoffset: 5}38.09214795587281%{ stroke-dashoffset: 0;}100%{ stroke-dashoffset: 0;}}@keyframes boCRvArG_draw_2{38.09214795587281%{stroke-dashoffset: 2}39.130434782608695%{ stroke-dashoffset: 0;}100%{ stroke-dashoffset: 0;}}</style></svg>