<svg xmlns="http://www.w3.org/2000/svg" xmlns:xlink="http://www.w3.org/1999/xlink" width="120" height="120" viewBox="0 0 120 120" id="phone"><defs><linearGradient id="b" x1="50%" x2="50%" y1="0%" y2="100%"><stop offset="0%" stop-color="#91FC8A"></stop><stop offset="100%" stop-color="#00DD35"></stop></linearGradient><rect id="a" width="120" height="120" x="0" y="0" rx="28"></rect></defs><g fill="none" fill-rule="evenodd"><g><mask id="c" fill="#fff"><use xlink:href="#a"></use></mask><use fill="url(#b)" xlink:href="#a"></use><path fill="#FFF" d="M56 47.5v13H46c-6.09 0-9.5 1.5-10.5 9.5 0 2-.5 5-3.5 6l-16 3c-5 .5-6.453-.504-7.5-3C2.005 60.511 18 48 56 47.5zm0 0c38 .5 53.995 13.011 47.5 28.5-1.047 2.496-2.5 3.5-7.5 3l-16-3c-3-1-3.5-4-3.5-6-1-8-4.41-9.5-10.5-9.5H56v-13z" mask="url(#c)" transform="rotate(-135 56 63.312)"></path></g></g></svg>